<svg xmlns="http://www.w3.org/2000/svg" xmlns:xlink="http://www.w3.org/1999/xlink" width="500" zoomAndPan="magnify" viewBox="0 0 375 374.999991" height="500" preserveAspectRatio="xMidYMid meet" version="1.2"><defs><clipPath id="15526bde87"><path d="M 113.113281 111.105469 L 261.886719 111.105469 L 261.886719 263.945312 L 113.113281 263.945312 Z M 113.113281 111.105469 "/></clipPath><clipPath id="84b32827df"><path d="M 130.363281 111.105469 L 244.636719 111.105469 C 249.210938 111.105469 253.597656 112.921875 256.832031 116.15625 C 260.070312 119.390625 261.886719 123.78125 261.886719 128.355469 L 261.886719 246.644531 C 261.886719 251.21875 260.070312 255.609375 256.832031 258.84375 C 253.597656 262.078125 249.210938 263.894531 244.636719 263.894531 L 130.363281 263.894531 C 125.789062 263.894531 121.402344 262.078125 118.167969 258.84375 C 114.929688 255.609375 113.113281 251.21875 113.113281 246.644531 L 113.113281 128.355469 C 113.113281 123.78125 114.929688 119.390625 118.167969 116.15625 C 121.402344 112.921875 125.789062 111.105469 130.363281 111.105469 Z M 130.363281 111.105469 "/></clipPath><clipPath id="820d2ee868"><path d="M 0.113281 0.105469 L 148.886719 0.105469 L 148.886719 152.945312 L 0.113281 152.945312 Z M 0.113281 0.105469 "/></clipPath><clipPath id="4e6aaa8703"><path d="M 17.363281 0.105469 L 131.636719 0.105469 C 136.210938 0.105469 140.597656 1.921875 143.832031 5.15625 C 147.070312 8.390625 148.886719 12.78125 148.886719 17.355469 L 148.886719 135.644531 C 148.886719 140.21875 147.070312 144.609375 143.832031 147.84375 C 140.597656 151.078125 136.210938 152.894531 131.636719 152.894531 L 17.363281 152.894531 C 12.789062 152.894531 8.402344 151.078125 5.167969 147.84375 C 1.929688 144.609375 0.113281 140.21875 0.113281 135.644531 L 0.113281 17.355469 C 0.113281 12.78125 1.929688 8.390625 5.167969 5.15625 C 8.402344 1.921875 12.789062 0.105469 17.363281 0.105469 Z M 17.363281 0.105469 "/></clipPath><clipPath id="768560d96b"><rect x="0" width="149" y="0" height="153"/></clipPath><clipPath id="98cfb9a677"><path d="M 113.113281 137.550781 L 262.363281 137.550781 L 262.363281 237.300781 L 113.113281 237.300781 Z M 113.113281 137.550781 "/></clipPath><clipPath id="7b969ce716"><path d="M 163.535156 178 L 212.335938 178 L 212.335938 198 L 163.535156 198 Z M 163.535156 178 "/></clipPath><clipPath id="4aa18ce47b"><path d="M 187.929688 212.164062 C 201.394531 212.164062 212.3125 201.089844 212.3125 187.425781 C 212.3125 173.757812 201.394531 162.683594 187.929688 162.683594 C 174.46875 162.683594 163.550781 173.757812 163.550781 187.425781 C 163.542969 201.089844 174.460938 212.164062 187.929688 212.164062 Z M 187.929688 212.164062 "/></clipPath></defs><g id="a48306ce32"><g clip-rule="nonzero" clip-path="url(#15526bde87)"><g clip-rule="nonzero" clip-path="url(#84b32827df)"><g transform="matrix(1,0,0,1,113,111)"><g clip-path="url(#768560d96b)"><g clip-rule="nonzero" clip-path="url(#820d2ee868)"><g clip-rule="nonzero" clip-path="url(#4e6aaa8703)"><path style=" stroke:none;fill-rule:nonzero;fill:#00a651;fill-opacity:1;" d="M 0.113281 0.105469 L 148.886719 0.105469 L 148.886719 152.945312 L 0.113281 152.945312 Z M 0.113281 0.105469 "/></g></g></g></g></g></g><g clip-rule="nonzero" clip-path="url(#98cfb9a677)"><path style=" stroke:none;fill-rule:nonzero;fill:#00a651;fill-opacity:1;" d="M 113.160156 137.550781 L 262.285156 137.550781 L 262.285156 237.292969 L 113.160156 237.292969 Z M 113.160156 137.550781 "/></g><path style=" stroke:none;fill-rule:nonzero;fill:#ffcb05;fill-opacity:1;" d="M 246.535156 187.390625 L 187.792969 224.855469 L 129.320312 187.390625 L 187.792969 149.984375 Z M 246.535156 187.390625 "/><path style=" stroke:none;fill-rule:evenodd;fill:#2e3192;fill-opacity:1;" d="M 187.929688 212.3125 C 201.394531 212.3125 212.3125 201.238281 212.3125 187.574219 C 212.3125 173.910156 201.394531 162.832031 187.929688 162.832031 C 174.46875 162.832031 163.550781 173.910156 163.550781 187.574219 C 163.542969 201.238281 174.460938 212.3125 187.929688 212.3125 Z M 187.929688 212.3125 "/><g clip-rule="nonzero" clip-path="url(#7b969ce716)"><g clip-rule="nonzero" clip-path="url(#4aa18ce47b)"><path style=" stroke:none;fill-rule:nonzero;fill:#ffffff;fill-opacity:1;" d="M 212.644531 197.5 C 200.167969 186.394531 181.046875 180.148438 160.292969 184.253906 C 160.261719 182.902344 160.269531 181.539062 160.292969 180.171875 C 182.078125 176.136719 202.183594 182.804688 215.40625 194.675781 C 214.460938 195.597656 213.539062 196.542969 212.644531 197.5 Z M 212.644531 197.5 "/></g></g><path style=" stroke:none;fill-rule:nonzero;fill:#079b49;fill-opacity:1;" d="M 169.730469 181.121094 C 169.769531 181.839844 169.359375 182.292969 168.730469 182.335938 C 168.085938 182.375 167.675781 181.910156 167.644531 181.289062 C 167.605469 180.636719 168 180.125 168.636719 180.085938 C 169.296875 180.046875 169.691406 180.523438 169.730469 181.121094 Z M 168.15625 181.242188 C 168.179688 181.664062 168.398438 181.957031 168.730469 181.933594 C 169.0625 181.917969 169.234375 181.585938 169.210938 181.160156 C 169.1875 180.769531 168.980469 180.445312 168.644531 180.46875 C 168.304688 180.492188 168.132812 180.816406 168.15625 181.242188 Z M 168.15625 181.242188 "/><path style=" stroke:none;fill-rule:nonzero;fill:#079b49;fill-opacity:1;" d="M 170.722656 180.054688 C 170.878906 180.019531 171.117188 180.003906 171.375 179.996094 C 171.699219 179.996094 171.925781 180.039062 172.082031 180.164062 C 172.21875 180.265625 172.289062 180.414062 172.289062 180.621094 C 172.289062 180.894531 172.097656 181.089844 171.910156 181.160156 L 171.910156 181.171875 C 172.058594 181.234375 172.144531 181.375 172.210938 181.570312 C 172.28125 181.816406 172.351562 182.097656 172.398438 182.183594 L 171.894531 182.191406 C 171.855469 182.128906 171.808594 181.957031 171.738281 181.6875 C 171.675781 181.421875 171.578125 181.34375 171.382812 181.34375 L 171.234375 181.34375 L 171.242188 182.199219 L 170.753906 182.207031 Z M 171.226562 180.988281 L 171.421875 180.988281 C 171.667969 180.988281 171.816406 180.863281 171.808594 180.675781 C 171.808594 180.476562 171.667969 180.375 171.445312 180.375 C 171.328125 180.375 171.257812 180.390625 171.226562 180.390625 Z M 171.226562 180.988281 "/><path style=" stroke:none;fill-rule:nonzero;fill:#079b49;fill-opacity:1;" d="M 173.359375 180.046875 C 173.539062 180.019531 173.777344 180.011719 174.027344 180.019531 C 174.445312 180.039062 174.703125 180.117188 174.917969 180.28125 C 175.136719 180.453125 175.269531 180.730469 175.261719 181.113281 C 175.246094 181.53125 175.089844 181.816406 174.878906 181.988281 C 174.640625 182.167969 174.289062 182.253906 173.863281 182.238281 C 173.601562 182.230469 173.429688 182.207031 173.304688 182.191406 Z M 173.800781 181.839844 C 173.839844 181.847656 173.910156 181.855469 173.972656 181.855469 C 174.421875 181.871094 174.71875 181.632812 174.734375 181.113281 C 174.75 180.660156 174.492188 180.414062 174.066406 180.40625 C 173.957031 180.40625 173.886719 180.414062 173.847656 180.421875 Z M 173.800781 181.839844 "/><path style=" stroke:none;fill-rule:nonzero;fill:#079b49;fill-opacity:1;" d="M 177.53125 181.46875 L 176.726562 181.414062 L 176.695312 181.933594 L 177.59375 181.996094 L 177.570312 182.398438 L 176.183594 182.304688 L 176.332031 180.132812 L 177.679688 180.226562 L 177.65625 180.628906 L 176.804688 180.570312 L 176.773438 181.019531 L 177.578125 181.074219 Z M 177.53125 181.46875 "/><path style=" stroke:none;fill-rule:nonzero;fill:#079b49;fill-opacity:1;" d="M 180.449219 181.847656 C 180.464844 181.585938 180.496094 181.273438 180.527344 180.957031 L 180.519531 180.957031 C 180.425781 181.226562 180.300781 181.523438 180.191406 181.769531 L 179.835938 182.585938 L 179.449219 182.546875 L 179.308594 181.679688 C 179.269531 181.421875 179.222656 181.105469 179.207031 180.816406 L 179.199219 180.816406 C 179.152344 181.105469 179.105469 181.4375 179.066406 181.703125 L 178.9375 182.523438 L 178.484375 182.476562 L 178.859375 180.328125 L 179.511719 180.398438 L 179.648438 181.144531 C 179.6875 181.40625 179.726562 181.679688 179.75 181.941406 L 179.757812 181.941406 C 179.84375 181.695312 179.953125 181.421875 180.050781 181.1875 L 180.355469 180.492188 L 180.992188 180.5625 L 180.875 182.742188 L 180.394531 182.6875 Z M 180.449219 181.847656 "/><path style=" stroke:none;fill-rule:nonzero;fill:#079b49;fill-opacity:1;" d="M 184.976562 182.59375 L 184.308594 182.476562 L 184.226562 182.910156 L 184.976562 183.042969 L 184.914062 183.378906 L 183.757812 183.175781 L 184.078125 181.359375 L 185.195312 181.5625 L 185.132812 181.902344 L 184.425781 181.777344 L 184.355469 182.152344 L 185.023438 182.269531 Z M 184.976562 182.59375 "/><path style=" stroke:none;fill-rule:nonzero;fill:#079b49;fill-opacity:1;" d="M 187.613281 181.738281 C 187.769531 181.746094 187.984375 181.777344 188.273438 181.847656 C 188.574219 181.917969 188.769531 182.019531 188.878906 182.167969 C 188.992188 182.3125 189.039062 182.507812 188.992188 182.710938 C 188.941406 182.917969 188.832031 183.082031 188.675781 183.167969 C 188.480469 183.285156 188.21875 183.292969 187.9375 183.230469 C 187.871094 183.214844 187.816406 183.199219 187.769531 183.183594 L 187.589844 183.9375 L 187.117188 183.828125 Z M 187.863281 182.8125 C 187.902344 182.828125 187.953125 182.84375 188.023438 182.859375 C 188.273438 182.925781 188.464844 182.828125 188.519531 182.609375 C 188.566406 182.414062 188.457031 182.261719 188.21875 182.207031 C 188.125 182.183594 188.054688 182.175781 188.015625 182.175781 Z M 187.863281 182.8125 "/><path style=" stroke:none;fill-rule:nonzero;fill:#079b49;fill-opacity:1;" d="M 190.132812 182.351562 C 190.289062 182.367188 190.523438 182.414062 190.777344 182.484375 C 191.09375 182.570312 191.296875 182.679688 191.414062 182.835938 C 191.507812 182.972656 191.539062 183.136719 191.484375 183.332031 C 191.414062 183.601562 191.171875 183.734375 190.972656 183.75 L 190.972656 183.757812 C 191.101562 183.859375 191.148438 184.019531 191.148438 184.230469 C 191.148438 184.480469 191.140625 184.78125 191.15625 184.867188 L 190.667969 184.734375 C 190.652344 184.664062 190.644531 184.480469 190.660156 184.207031 C 190.675781 183.929688 190.605469 183.828125 190.414062 183.773438 L 190.273438 183.734375 L 190.046875 184.558594 L 189.574219 184.425781 Z M 190.351562 183.386719 L 190.539062 183.445312 C 190.777344 183.507812 190.949219 183.425781 191.003906 183.246094 C 191.058594 183.050781 190.957031 182.925781 190.738281 182.851562 C 190.621094 182.820312 190.558594 182.8125 190.515625 182.804688 Z M 190.351562 183.386719 "/><path style=" stroke:none;fill-rule:nonzero;fill:#079b49;fill-opacity:1;" d="M 194.257812 184.679688 C 194.035156 185.355469 193.492188 185.636719 192.886719 185.441406 C 192.273438 185.246094 192.058594 184.664062 192.25 184.074219 C 192.453125 183.453125 192.996094 183.113281 193.609375 183.308594 C 194.25 183.515625 194.445312 184.105469 194.257812 184.679688 Z M 192.753906 184.222656 C 192.617188 184.632812 192.722656 184.976562 193.035156 185.078125 C 193.351562 185.183594 193.632812 184.9375 193.761719 184.535156 C 193.878906 184.167969 193.808594 183.789062 193.484375 183.679688 C 193.160156 183.578125 192.878906 183.820312 192.753906 184.222656 Z M 192.753906 184.222656 "/><path style=" stroke:none;fill-rule:nonzero;fill:#079b49;fill-opacity:1;" d="M 196.554688 186.597656 C 196.398438 186.589844 196.097656 186.558594 195.832031 186.457031 C 195.460938 186.316406 195.222656 186.117188 195.105469 185.867188 C 194.988281 185.621094 194.980469 185.316406 195.097656 185.015625 C 195.359375 184.339844 195.996094 184.136719 196.664062 184.386719 C 196.925781 184.488281 197.113281 184.617188 197.191406 184.703125 L 196.957031 185.03125 C 196.863281 184.9375 196.734375 184.851562 196.515625 184.765625 C 196.128906 184.625 195.757812 184.726562 195.59375 185.175781 C 195.4375 185.589844 195.609375 185.945312 195.988281 186.085938 C 196.089844 186.125 196.183594 186.140625 196.222656 186.140625 L 196.382812 185.71875 L 196.066406 185.597656 L 196.199219 185.238281 L 196.964844 185.519531 Z M 196.554688 186.597656 "/><path style=" stroke:none;fill-rule:nonzero;fill:#079b49;fill-opacity:1;" d="M 198.292969 185.085938 C 198.453125 185.125 198.671875 185.199219 198.914062 185.300781 C 199.214844 185.425781 199.402344 185.558594 199.5 185.734375 C 199.578125 185.882812 199.585938 186.046875 199.507812 186.226562 C 199.394531 186.488281 199.144531 186.582031 198.9375 186.574219 L 198.929688 186.582031 C 199.050781 186.699219 199.066406 186.867188 199.042969 187.070312 C 199.011719 187.320312 198.964844 187.613281 198.964844 187.707031 L 198.5 187.511719 C 198.492188 187.441406 198.515625 187.257812 198.554688 186.984375 C 198.609375 186.707031 198.546875 186.605469 198.363281 186.527344 L 198.230469 186.472656 L 197.890625 187.257812 L 197.445312 187.070312 Z M 198.378906 186.140625 L 198.5625 186.21875 C 198.789062 186.316406 198.972656 186.257812 199.042969 186.085938 C 199.121094 185.90625 199.035156 185.757812 198.828125 185.660156 C 198.71875 185.613281 198.65625 185.597656 198.617188 185.589844 Z M 198.378906 186.140625 "/><path style=" stroke:none;fill-rule:nonzero;fill:#079b49;fill-opacity:1;" d="M 201.363281 187.808594 L 200.640625 187.464844 L 200.417969 187.925781 L 201.230469 188.3125 L 201.046875 188.683594 L 199.789062 188.085938 L 200.726562 186.117188 L 201.945312 186.691406 L 201.773438 187.054688 L 201 186.691406 L 200.8125 187.109375 L 201.535156 187.457031 Z M 201.363281 187.808594 "/><path style=" stroke:none;fill-rule:nonzero;fill:#079b49;fill-opacity:1;" d="M 202.167969 188.675781 C 202.253906 188.792969 202.402344 188.949219 202.589844 189.050781 C 202.789062 189.15625 202.945312 189.132812 203.007812 189.003906 C 203.070312 188.886719 203.015625 188.769531 202.828125 188.566406 C 202.566406 188.28125 202.449219 188 202.597656 187.714844 C 202.773438 187.382812 203.183594 187.273438 203.636719 187.519531 C 203.859375 187.628906 203.992188 187.761719 204.078125 187.871094 L 203.796875 188.171875 C 203.742188 188.09375 203.628906 187.96875 203.441406 187.863281 C 203.253906 187.761719 203.117188 187.800781 203.0625 187.902344 C 203 188.03125 203.078125 188.140625 203.277344 188.359375 C 203.550781 188.667969 203.621094 188.925781 203.472656 189.203125 C 203.300781 189.523438 202.914062 189.675781 202.378906 189.390625 C 202.160156 189.273438 201.96875 189.109375 201.890625 188.988281 Z M 202.167969 188.675781 "/><path style=" stroke:none;fill-rule:nonzero;fill:#079b49;fill-opacity:1;" d="M 204.285156 189.808594 C 204.363281 189.933594 204.503906 190.089844 204.691406 190.199219 C 204.890625 190.3125 205.039062 190.296875 205.109375 190.167969 C 205.179688 190.050781 205.125 189.933594 204.945312 189.722656 C 204.691406 189.429688 204.589844 189.140625 204.75 188.863281 C 204.9375 188.542969 205.347656 188.445312 205.785156 188.707031 C 206 188.832031 206.132812 188.964844 206.210938 189.074219 L 205.921875 189.367188 C 205.867188 189.289062 205.761719 189.15625 205.574219 189.050781 C 205.386719 188.949219 205.25 188.980469 205.195312 189.074219 C 205.125 189.195312 205.203125 189.3125 205.394531 189.539062 C 205.652344 189.855469 205.714844 190.121094 205.558594 190.382812 C 205.378906 190.695312 204.976562 190.832031 204.457031 190.53125 C 204.246094 190.40625 204.0625 190.230469 203.984375 190.105469 Z M 204.285156 189.808594 "/><path style=" stroke:none;fill-rule:nonzero;fill:#079b49;fill-opacity:1;" d="M 208.351562 191.570312 C 207.96875 192.175781 207.371094 192.308594 206.832031 191.964844 C 206.289062 191.617188 206.226562 191.003906 206.566406 190.476562 C 206.921875 189.925781 207.535156 189.738281 208.078125 190.082031 C 208.636719 190.4375 208.675781 191.058594 208.351562 191.570312 Z M 207.007812 190.742188 C 206.777344 191.105469 206.785156 191.46875 207.0625 191.640625 C 207.34375 191.820312 207.675781 191.65625 207.90625 191.292969 C 208.117188 190.964844 208.132812 190.578125 207.847656 190.398438 C 207.566406 190.222656 207.234375 190.390625 207.007812 190.742188 Z M 207.007812 190.742188 "/><path style=" stroke:none;fill-rule:evenodd;fill:#ffffff;fill-opacity:1;" d="M 193.328125 202.597656 L 193.941406 202.597656 L 193.4375 202.96875 L 193.632812 203.574219 L 193.128906 203.1875 L 192.632812 203.550781 L 192.824219 202.960938 L 192.34375 202.597656 L 192.941406 202.597656 L 193.136719 202.03125 Z M 193.328125 202.597656 "/><path style=" stroke:none;fill-rule:evenodd;fill:#ffffff;fill-opacity:1;" d="M 198.363281 206.328125 L 198.796875 206.328125 L 198.445312 206.578125 L 198.585938 206.996094 L 198.230469 206.738281 L 197.882812 206.988281 L 198.019531 206.570312 L 197.6875 206.328125 L 198.097656 206.328125 L 198.230469 205.933594 Z M 198.363281 206.328125 "/><path style=" stroke:none;fill-rule:nonzero;fill:#ffffff;fill-opacity:1;" d="M 192.730469 181.40625 L 193.304688 181.011719 L 193.847656 181.40625 L 193.640625 180.769531 L 194.175781 180.367188 L 193.523438 180.367188 L 193.304688 179.730469 L 193.066406 180.367188 L 192.390625 180.367188 L 192.957031 180.769531 "/><path style=" stroke:none;fill-rule:nonzero;fill:#ffffff;fill-opacity:1;" d="M 203.355469 197.699219 L 204.023438 197.226562 L 204.660156 197.699219 L 204.425781 196.941406 L 205.054688 196.472656 L 204.285156 196.472656 L 204.023438 195.722656 L 203.75 196.472656 L 202.960938 196.472656 L 203.621094 196.941406 "/><path style=" stroke:none;fill-rule:nonzero;fill:#ffffff;fill-opacity:1;" d="M 192.746094 189.082031 L 193.152344 188.792969 L 193.539062 189.082031 L 193.398438 188.621094 L 193.785156 188.335938 L 193.3125 188.335938 L 193.152344 187.878906 L 192.980469 188.335938 L 192.5 188.335938 L 192.902344 188.621094 "/><path style=" stroke:none;fill-rule:nonzero;fill:#ffffff;fill-opacity:1;" d="M 169.605469 185.78125 L 170.179688 185.378906 L 170.722656 185.78125 L 170.515625 185.136719 L 171.058594 184.734375 L 170.398438 184.734375 L 170.179688 184.097656 L 169.941406 184.734375 L 169.265625 184.734375 L 169.832031 185.136719 "/><path style=" stroke:none;fill-rule:nonzero;fill:#ffffff;fill-opacity:1;" d="M 178.292969 191.382812 L 178.867188 190.988281 L 179.402344 191.382812 L 179.207031 190.742188 L 179.742188 190.34375 L 179.089844 190.34375 L 178.867188 189.707031 L 178.632812 190.34375 L 177.957031 190.34375 L 178.523438 190.742188 "/><path style=" stroke:none;fill-rule:nonzero;fill:#ffffff;fill-opacity:1;" d="M 188.785156 195.273438 L 189.359375 194.875 L 189.902344 195.273438 L 189.699219 194.628906 L 190.234375 194.230469 L 189.582031 194.230469 L 189.359375 193.597656 L 189.125 194.230469 L 188.445312 194.230469 L 189.015625 194.628906 "/><path style=" stroke:none;fill-rule:nonzero;fill:#ffffff;fill-opacity:1;" d="M 187.320312 200.9375 L 187.894531 200.546875 L 188.429688 200.9375 L 188.226562 200.300781 L 188.769531 199.902344 L 188.109375 199.902344 L 187.894531 199.261719 L 187.660156 199.902344 L 186.984375 199.902344 L 187.550781 200.300781 "/><path style=" stroke:none;fill-rule:nonzero;fill:#ffffff;fill-opacity:1;" d="M 194.019531 206.539062 L 194.59375 206.140625 L 195.136719 206.539062 L 194.933594 205.894531 L 195.46875 205.492188 L 194.816406 205.492188 L 194.59375 204.855469 L 194.359375 205.492188 L 193.679688 205.492188 L 194.25 205.894531 "/><path style=" stroke:none;fill-rule:nonzero;fill:#ffffff;fill-opacity:1;" d="M 187.441406 208.949219 L 187.652344 208.796875 L 187.855469 208.949219 L 187.777344 208.703125 L 187.984375 208.554688 L 187.738281 208.554688 L 187.652344 208.316406 L 187.566406 208.554688 L 187.3125 208.554688 L 187.527344 208.703125 "/><path style=" stroke:none;fill-rule:nonzero;fill:#ffffff;fill-opacity:1;" d="M 171.074219 196.542969 L 171.652344 196.140625 L 172.1875 196.542969 L 171.980469 195.894531 L 172.523438 195.503906 L 171.871094 195.503906 L 171.652344 194.867188 L 171.414062 195.503906 L 170.738281 195.503906 L 171.304688 195.894531 "/><path style=" stroke:none;fill-rule:nonzero;fill:#ffffff;fill-opacity:1;" d="M 175.695312 199.617188 L 176.175781 199.277344 L 176.632812 199.617188 L 176.460938 199.074219 L 176.917969 198.746094 L 176.363281 198.746094 L 176.175781 198.210938 L 175.980469 198.746094 L 175.414062 198.746094 L 175.894531 199.074219 "/><path style=" stroke:none;fill-rule:nonzero;fill:#ffffff;fill-opacity:1;" d="M 198.355469 204.359375 L 198.835938 204.023438 L 199.292969 204.359375 L 199.121094 203.816406 L 199.578125 203.488281 L 199.027344 203.488281 L 198.835938 202.953125 L 198.640625 203.488281 L 198.074219 203.488281 L 198.546875 203.816406 "/><path style=" stroke:none;fill-rule:nonzero;fill:#ffffff;fill-opacity:1;" d="M 201.015625 203.15625 L 201.496094 202.820312 L 201.945312 203.15625 L 201.773438 202.613281 L 202.230469 202.285156 L 201.679688 202.285156 L 201.496094 201.75 L 201.300781 202.285156 L 200.734375 202.285156 L 201.207031 202.613281 "/><path style=" stroke:none;fill-rule:nonzero;fill:#ffffff;fill-opacity:1;" d="M 202.921875 201.828125 L 203.402344 201.496094 L 203.859375 201.828125 L 203.683594 201.292969 L 204.132812 200.953125 L 203.582031 200.953125 L 203.402344 200.425781 L 203.207031 200.953125 L 202.636719 200.953125 L 203.109375 201.292969 "/><path style=" stroke:none;fill-rule:nonzero;fill:#ffffff;fill-opacity:1;" d="M 204.589844 199.6875 L 205.070312 199.351562 L 205.527344 199.6875 L 205.355469 199.144531 L 205.8125 198.816406 L 205.25 198.816406 L 205.070312 198.28125 L 204.875 198.816406 L 204.308594 198.816406 L 204.78125 199.144531 "/><path style=" stroke:none;fill-rule:nonzero;fill:#ffffff;fill-opacity:1;" d="M 175.710938 204.0625 L 176.277344 203.667969 L 176.820312 204.0625 L 176.617188 203.425781 L 177.160156 203.023438 L 176.5 203.023438 L 176.277344 202.386719 L 176.042969 203.023438 L 175.375 203.023438 L 175.941406 203.425781 "/><path style=" stroke:none;fill-rule:nonzero;fill:#ffffff;fill-opacity:1;" d="M 167.984375 197.832031 L 168.511719 197.460938 L 169.015625 197.832031 L 168.824219 197.234375 L 169.320312 196.863281 L 168.714844 196.863281 L 168.511719 196.273438 L 168.289062 196.863281 L 167.667969 196.863281 L 168.1875 197.234375 "/><path style=" stroke:none;fill-rule:nonzero;fill:#ffffff;fill-opacity:1;" d="M 173.136719 194.789062 L 173.5 194.535156 L 173.839844 194.789062 L 173.703125 194.386719 L 174.042969 194.132812 L 173.632812 194.132812 L 173.5 193.742188 L 173.351562 194.132812 L 172.925781 194.132812 L 173.28125 194.386719 "/><path style=" stroke:none;fill-rule:nonzero;fill:#ffffff;fill-opacity:1;" d="M 186.589844 194.054688 L 186.953125 193.804688 L 187.289062 194.054688 L 187.164062 193.65625 L 187.503906 193.402344 L 187.085938 193.402344 L 186.953125 193 L 186.800781 193.402344 L 186.378906 193.402344 L 186.730469 193.65625 "/><path style=" stroke:none;fill-rule:nonzero;fill:#ffffff;fill-opacity:1;" d="M 184.109375 196.015625 L 184.464844 195.761719 L 184.804688 196.015625 L 184.675781 195.613281 L 185.015625 195.363281 L 184.605469 195.363281 L 184.464844 194.960938 L 184.324219 195.363281 L 183.898438 195.363281 L 184.253906 195.613281 "/><path style=" stroke:none;fill-rule:nonzero;fill:#ffffff;fill-opacity:1;" d="M 185.636719 197.328125 L 185.992188 197.078125 L 186.328125 197.328125 L 186.203125 196.917969 L 186.542969 196.667969 L 186.132812 196.667969 L 185.992188 196.273438 L 185.84375 196.667969 L 185.425781 196.667969 L 185.777344 196.917969 "/><path style=" stroke:none;fill-rule:nonzero;fill:#ffffff;fill-opacity:1;" d="M 196.011719 203.292969 L 196.375 203.039062 L 196.710938 203.292969 L 196.585938 202.890625 L 196.925781 202.636719 L 196.507812 202.636719 L 196.375 202.238281 L 196.222656 202.636719 L 195.796875 202.636719 L 196.152344 202.890625 "/><path style=" stroke:none;fill-rule:nonzero;fill:#ffffff;fill-opacity:1;" d="M 198.160156 202.023438 L 198.515625 201.773438 L 198.859375 202.023438 L 198.726562 201.625 L 199.066406 201.371094 L 198.65625 201.371094 L 198.515625 200.96875 L 198.371094 201.371094 L 197.949219 201.371094 L 198.300781 201.625 "/><path style=" stroke:none;fill-rule:nonzero;fill:#ffffff;fill-opacity:1;" d="M 207.613281 197.910156 L 207.976562 197.660156 L 208.3125 197.910156 L 208.1875 197.5 L 208.527344 197.25 L 208.109375 197.25 L 207.976562 196.855469 L 207.824219 197.25 L 207.402344 197.25 L 207.753906 197.5 "/><path style=" stroke:none;fill-rule:nonzero;fill:#ffffff;fill-opacity:1;" d="M 173.492188 201.097656 L 173.855469 200.84375 L 174.191406 201.097656 L 174.066406 200.695312 L 174.40625 200.445312 L 173.988281 200.445312 L 173.855469 200.042969 L 173.703125 200.445312 L 173.28125 200.445312 L 173.632812 200.695312 "/></g></svg>