<svg xmlns="http://www.w3.org/2000/svg" xmlns:xlink="http://www.w3.org/1999/xlink" width="500" zoomAndPan="magnify" viewBox="0 0 375 374.999991" height="500" preserveAspectRatio="xMidYMid meet" version="1.2"><defs><clipPath id="02da78a127"><path d="M 113.113281 111.105469 L 261.886719 111.105469 L 261.886719 263.945312 L 113.113281 263.945312 Z M 113.113281 111.105469 "/></clipPath><clipPath id="e735e2b428"><path d="M 130.363281 111.105469 L 244.636719 111.105469 C 249.210938 111.105469 253.597656 112.921875 256.832031 116.15625 C 260.070312 119.390625 261.886719 123.78125 261.886719 128.355469 L 261.886719 246.644531 C 261.886719 251.21875 260.070312 255.609375 256.832031 258.84375 C 253.597656 262.078125 249.210938 263.894531 244.636719 263.894531 L 130.363281 263.894531 C 125.789062 263.894531 121.402344 262.078125 118.167969 258.84375 C 114.929688 255.609375 113.113281 251.21875 113.113281 246.644531 L 113.113281 128.355469 C 113.113281 123.78125 114.929688 119.390625 118.167969 116.15625 C 121.402344 112.921875 125.789062 111.105469 130.363281 111.105469 Z M 130.363281 111.105469 "/></clipPath><clipPath id="b077a4fa1b"><path d="M 0.113281 0.105469 L 148.886719 0.105469 L 148.886719 152.945312 L 0.113281 152.945312 Z M 0.113281 0.105469 "/></clipPath><clipPath id="85cbddcade"><path d="M 17.363281 0.105469 L 131.636719 0.105469 C 136.210938 0.105469 140.597656 1.921875 143.832031 5.15625 C 147.070312 8.390625 148.886719 12.78125 148.886719 17.355469 L 148.886719 135.644531 C 148.886719 140.21875 147.070312 144.609375 143.832031 147.84375 C 140.597656 151.078125 136.210938 152.894531 131.636719 152.894531 L 17.363281 152.894531 C 12.789062 152.894531 8.402344 151.078125 5.167969 147.84375 C 1.929688 144.609375 0.113281 140.21875 0.113281 135.644531 L 0.113281 17.355469 C 0.113281 12.78125 1.929688 8.390625 5.167969 5.15625 C 8.402344 1.921875 12.789062 0.105469 17.363281 0.105469 Z M 17.363281 0.105469 "/></clipPath><clipPath id="9df6041e81"><rect x="0" width="149" y="0" height="153"/></clipPath><clipPath id="3d98542668"><path d="M 113.113281 111.105469 L 261.613281 111.105469 L 261.613281 264 L 113.113281 264 Z M 113.113281 111.105469 "/></clipPath><clipPath id="c3c63c4eb5"><path d="M 130.363281 111.105469 L 244.632812 111.105469 C 249.207031 111.105469 253.597656 112.921875 256.832031 116.15625 C 260.066406 119.394531 261.882812 123.78125 261.882812 128.355469 L 261.882812 246.644531 C 261.882812 251.21875 260.066406 255.605469 256.832031 258.839844 C 253.597656 262.074219 249.207031 263.894531 244.632812 263.894531 L 130.363281 263.894531 C 125.789062 263.894531 121.402344 262.074219 118.167969 258.839844 C 114.929688 255.605469 113.113281 251.21875 113.113281 246.644531 L 113.113281 128.355469 C 113.113281 123.78125 114.929688 119.394531 118.167969 116.15625 C 121.402344 112.921875 125.789062 111.105469 130.363281 111.105469 Z M 130.363281 111.105469 "/></clipPath><clipPath id="3fc9e3342e"><path d="M 187 225 L 204 225 L 204 233.707031 L 187 233.707031 Z M 187 225 "/></clipPath><clipPath id="09d39a4b42"><path d="M 228 183 L 259.417969 183 L 259.417969 192 L 228 192 Z M 228 183 "/></clipPath><clipPath id="9d4225085c"><path d="M 115.417969 182 L 228 182 L 228 192 L 115.417969 192 Z M 115.417969 182 "/></clipPath><clipPath id="64c61c92b7"><path d="M 122 141.457031 L 180 141.457031 L 180 184 L 122 184 Z M 122 141.457031 "/></clipPath></defs><g id="e77ac73ae6"><g clip-rule="nonzero" clip-path="url(#02da78a127)"><g clip-rule="nonzero" clip-path="url(#e735e2b428)"><g transform="matrix(1,0,0,1,113,111)"><g clip-path="url(#9df6041e81)"><g clip-rule="nonzero" clip-path="url(#b077a4fa1b)"><g clip-rule="nonzero" clip-path="url(#85cbddcade)"><path style=" stroke:none;fill-rule:nonzero;fill:#ffffff;fill-opacity:1;" d="M 0.113281 0.105469 L 148.886719 0.105469 L 148.886719 152.945312 L 0.113281 152.945312 Z M 0.113281 0.105469 "/></g></g></g></g></g></g><g clip-rule="nonzero" clip-path="url(#3d98542668)"><g clip-rule="nonzero" clip-path="url(#c3c63c4eb5)"><path style="fill:none;stroke-width:2;stroke-linecap:butt;stroke-linejoin:miter;stroke:#000000;stroke-opacity:1;stroke-miterlimit:4;" d="M 22.999247 -0.000184472 L 175.358632 -0.000184472 C 181.45759 -0.000184472 187.311757 2.421691 191.624258 6.734191 C 195.936758 11.0519 198.358633 16.900858 198.358633 22.999817 L 198.358633 180.718577 C 198.358633 186.817536 195.936758 192.666495 191.624258 196.978995 C 187.311757 201.291495 181.45759 203.718579 175.358632 203.718579 L 22.999247 203.718579 C 16.900288 203.718579 11.051329 201.291495 6.738829 196.978995 C 2.42112 192.666495 -0.000754963 186.817536 -0.000754963 180.718577 L -0.000754963 22.999817 C -0.000754963 16.900858 2.42112 11.0519 6.738829 6.734191 C 11.051329 2.421691 16.900288 -0.000184472 22.999247 -0.000184472 Z M 22.999247 -0.000184472 " transform="matrix(0.75,0,0,0.75,113.113847,111.105607)"/></g></g><path style=" stroke:none;fill-rule:nonzero;fill:#2d2d2d;fill-opacity:1;" d="M 210.59375 148.472656 C 210.570312 148.355469 210.53125 148.242188 210.476562 148.132812 L 210.371094 147.917969 C 209.878906 146.957031 208.511719 146.714844 207.894531 145.839844 C 207.550781 145.347656 207.351562 144.621094 206.796875 144.265625 C 205.945312 143.71875 205.089844 144.347656 204.253906 144.648438 C 203.351562 144.972656 203.585938 144.726562 202.800781 144.4375 C 201.851562 144.089844 199.847656 144.460938 199.042969 144.941406 C 198.652344 145.171875 198.859375 145.261719 198.421875 145.378906 C 197.984375 145.5 197.644531 145.21875 197.148438 145.574219 C 196.480469 146.050781 196.773438 147.195312 195.890625 146.53125 C 195.214844 146.023438 195.214844 145.265625 194.140625 145.195312 C 193.21875 145.128906 192.617188 145.75 192.449219 146.597656 C 191.3125 146.851562 189.941406 146.777344 188.785156 146.804688 C 188.179688 146.820312 187.65625 147.234375 187.0625 147.332031 C 186.335938 147.449219 185.59375 147.273438 184.863281 147.332031 C 184.425781 147.371094 184.03125 147.691406 183.605469 147.710938 C 183.074219 147.734375 182.910156 147.488281 182.429688 147.367188 L 182.136719 147.292969 L 182.046875 147.25 C 181.871094 147.164062 181.683594 147.117188 181.484375 147.117188 L 181.054688 147.117188 C 180.707031 147.117188 180.410156 147.242188 180.164062 147.488281 L 180.058594 147.59375 C 179.960938 147.691406 179.882812 147.800781 179.820312 147.925781 L 179.582031 148.40625 C 180.824219 148.390625 182.066406 148.375 183.3125 148.367188 C 192.078125 148.289062 200.921875 148.285156 209.347656 148.566406 L 210.648438 148.546875 Z M 210.59375 148.472656 "/><path style=" stroke:none;fill-rule:nonzero;fill:#2d2d2d;fill-opacity:1;" d="M 179.5625 156.949219 L 179.5625 165.523438 C 189.53125 165.453125 199.699219 165.410156 209.324219 165.617188 C 210.835938 165.707031 212.339844 165.78125 213.832031 165.839844 C 213.800781 165.75 213.757812 165.664062 213.703125 165.585938 C 213.695312 165.441406 213.664062 165.300781 213.609375 165.164062 C 213.5 164.910156 213.207031 164.785156 213.105469 164.574219 C 212.703125 163.785156 212.421875 162.550781 212.203125 161.671875 C 211.988281 160.789062 210.859375 160.050781 211.480469 159.140625 C 211.746094 158.742188 211.773438 158.941406 212.089844 158.671875 C 212.648438 158.222656 212.996094 157.644531 213.136719 156.941406 C 211.878906 156.96875 210.605469 157.003906 209.324219 157.046875 C 199.699219 157.121094 189.53125 156.976562 179.5625 156.949219 Z M 179.5625 156.949219 "/><path style=" stroke:none;fill-rule:nonzero;fill:#2d2d2d;fill-opacity:1;" d="M 220.496094 179.628906 C 221.027344 178.777344 220.703125 177.859375 220.058594 177.175781 C 220.175781 176.960938 220.226562 176.730469 220.214844 176.488281 C 220.199219 176.242188 220.125 176.019531 219.984375 175.816406 C 220.332031 175.546875 220.519531 175.191406 220.542969 174.75 L 220.542969 174.511719 L 220.59375 174.484375 L 220.746094 174.410156 C 217.0625 174.410156 213.238281 174.410156 209.324219 174.347656 C 202.265625 174.65625 194.898438 174.667969 187.535156 174.597656 C 184.875 174.574219 182.210938 174.535156 179.5625 174.5 L 179.5625 182.921875 L 178.785156 182.921875 C 181.6875 182.894531 184.613281 182.867188 187.535156 182.84375 C 194.894531 182.792969 202.257812 182.792969 209.320312 183 C 212.785156 183 216.175781 183.042969 219.464844 183.085938 C 219.488281 183.027344 219.511719 182.96875 219.53125 182.90625 C 219.855469 181.773438 221.894531 180.960938 220.496094 179.628906 Z M 220.496094 179.628906 "/><path style=" stroke:none;fill-rule:nonzero;fill:#2d2d2d;fill-opacity:1;" d="M 228.140625 191.722656 C 228.257812 191.664062 228.382812 191.628906 228.511719 191.613281 L 227.828125 191.613281 C 227.855469 191.640625 227.878906 191.671875 227.898438 191.699219 C 227.980469 191.699219 228.058594 191.707031 228.140625 191.722656 Z M 228.140625 191.722656 "/><path style=" stroke:none;fill-rule:nonzero;fill:#2d2d2d;fill-opacity:1;" d="M 245.835938 191.472656 C 240.914062 191.472656 235.027344 191.574219 228.511719 191.613281 C 228.382812 191.628906 228.257812 191.664062 228.140625 191.722656 C 228.058594 191.707031 227.980469 191.703125 227.898438 191.703125 C 227.878906 191.671875 227.855469 191.644531 227.828125 191.617188 C 222.0625 191.648438 215.820312 191.636719 209.324219 191.472656 C 202.265625 191.375 194.898438 191.339844 187.535156 191.34375 C 180.171875 191.347656 172.816406 191.402344 165.75 191.472656 C 159.0625 191.304688 152.640625 191.570312 146.734375 191.507812 C 146.804688 191.527344 146.875 191.539062 146.945312 191.546875 L 147.003906 191.566406 C 148.296875 192.394531 149.941406 192.386719 151.378906 192.832031 C 151.980469 193.019531 151.796875 192.703125 152.167969 193.257812 C 152.476562 193.714844 152.269531 194.238281 152.671875 194.695312 C 153.132812 195.226562 154.332031 195.496094 155.027344 195.371094 C 155.472656 195.289062 155.726562 194.898438 156.085938 194.769531 C 156.601562 194.582031 157.035156 194.847656 157.542969 194.96875 C 158.65625 195.222656 159.78125 195.132812 160.875 195.183594 C 161.648438 195.222656 162.476562 195.382812 163.25 195.292969 C 163.828125 195.226562 165.015625 194.6875 165.519531 194.824219 C 166.414062 195.0625 166.453125 196.496094 167.359375 196.9375 C 167.90625 197.191406 168.445312 197.246094 168.980469 197.535156 C 169.65625 197.890625 170.160156 198.410156 170.496094 199.097656 C 170.539062 199.324219 170.636719 199.519531 170.789062 199.691406 L 170.789062 199.734375 C 170.71875 199.898438 170.683594 200.066406 170.683594 200.242188 L 170.683594 200.289062 C 176.210938 200.332031 181.871094 200.230469 187.527344 200.15625 C 194.890625 200.0625 202.25 199.984375 209.316406 200.210938 C 223.449219 199.820312 236.40625 200.035156 245.828125 200.210938 C 247.285156 200.199219 248.828125 200.347656 250.273438 200.171875 C 249.828125 199.417969 249.253906 198.789062 248.542969 198.285156 C 249.449219 197.359375 248.769531 195.925781 249.800781 195.152344 C 250.375 194.722656 251.75 194.097656 252.472656 194.0625 C 253.984375 193.988281 258.035156 193.808594 258.035156 191.5625 L 258.035156 191.511719 C 255.40625 191.558594 251.191406 191.582031 245.835938 191.472656 Z M 245.835938 191.472656 "/><path style=" stroke:none;fill-rule:nonzero;fill:#2d2d2d;fill-opacity:1;" d="M 187.535156 208.984375 C 182.035156 208.953125 176.535156 208.863281 171.152344 208.902344 C 171.171875 208.992188 171.203125 209.082031 171.246094 209.167969 C 171.421875 210.125 172.46875 210.671875 172.925781 211.476562 C 173.257812 212.070312 173.644531 212.625 174.089844 213.140625 C 174.308594 213.394531 174.84375 213.714844 174.988281 213.976562 C 175.152344 214.269531 175.015625 214.601562 175.15625 214.964844 C 175.40625 215.609375 176.121094 216.519531 176.613281 217.007812 C 176.660156 217.054688 176.710938 217.101562 176.765625 217.140625 C 176.734375 217.222656 176.710938 217.304688 176.695312 217.394531 C 180.285156 217.332031 183.910156 217.25 187.535156 217.214844 C 194.894531 217.214844 202.257812 217.277344 209.320312 217.449219 C 211.671875 217.382812 213.988281 217.339844 216.261719 217.320312 C 216.25 217.109375 216.1875 216.914062 216.078125 216.734375 C 216.003906 216.542969 215.890625 216.382812 215.742188 216.246094 C 215.773438 216.230469 215.804688 216.210938 215.835938 216.1875 L 216.757812 215.542969 L 216.90625 215.488281 C 217.09375 215.425781 217.253906 215.324219 217.394531 215.1875 L 217.460938 215.117188 L 218.5625 214.566406 L 218.644531 214.519531 C 220.054688 213.671875 221.429688 212.769531 223.144531 212.855469 C 223.425781 212.871094 223.566406 212.757812 223.828125 212.796875 C 224.085938 212.835938 224.269531 213.070312 224.546875 213.089844 C 225.195312 213.132812 225.261719 212.695312 225.710938 212.460938 C 226.636719 211.976562 226.972656 212.023438 227.492188 211.050781 C 227.695312 210.660156 227.792969 210.066406 228.148438 209.773438 C 228.601562 209.394531 229.191406 209.652344 229.660156 209.203125 C 223.390625 209.152344 216.511719 209.023438 209.320312 208.984375 C 202.257812 209 194.898438 208.992188 187.535156 208.984375 Z M 187.535156 208.984375 "/><path style=" stroke:none;fill-rule:nonzero;fill:#2d2d2d;fill-opacity:1;" d="M 232.523438 210.199219 L 232.632812 210.199219 C 232.890625 210.199219 233.128906 210.125 233.34375 209.976562 C 233.558594 209.832031 233.710938 209.632812 233.804688 209.390625 C 233.839844 209.339844 233.867188 209.285156 233.890625 209.226562 L 231.296875 209.226562 C 231.363281 209.511719 231.511719 209.746094 231.742188 209.925781 C 231.96875 210.109375 232.230469 210.199219 232.523438 210.199219 Z M 232.523438 210.199219 "/><path style=" stroke:none;fill-rule:nonzero;fill:#2d2d2d;fill-opacity:1;" d="M 236.433594 209.976562 C 236.46875 210.128906 236.527344 210.265625 236.613281 210.394531 L 236.832031 210.714844 C 236.988281 210.949219 237.203125 211.113281 237.476562 211.207031 L 237.796875 211.3125 C 238.0625 211.402344 238.328125 211.402344 238.59375 211.3125 L 238.730469 211.265625 C 238.765625 211.261719 238.796875 211.257812 238.828125 211.25 L 239.46875 211.144531 C 239.507812 211.140625 239.550781 211.132812 239.589844 211.121094 L 239.605469 211.140625 C 239.765625 211.382812 239.980469 211.550781 240.253906 211.644531 L 240.574219 211.753906 C 240.800781 211.828125 241.027344 211.835938 241.261719 211.78125 C 241.492188 211.726562 241.691406 211.617188 241.863281 211.445312 L 242.074219 211.234375 C 242.203125 211.105469 242.296875 210.957031 242.363281 210.785156 C 242.464844 210.355469 242.566406 209.925781 242.660156 209.492188 L 242.660156 209.457031 C 243.046875 209.378906 243.414062 209.257812 243.769531 209.085938 C 241.203125 209.1875 238.414062 209.226562 235.4375 209.234375 C 235.628906 209.671875 235.960938 209.917969 236.433594 209.976562 Z M 236.433594 209.976562 "/><g clip-rule="nonzero" clip-path="url(#3fc9e3342e)"><path style=" stroke:none;fill-rule:nonzero;fill:#2d2d2d;fill-opacity:1;" d="M 187.535156 225.90625 L 187.464844 225.90625 L 187.464844 226.1875 C 187.460938 226.222656 187.460938 226.257812 187.464844 226.292969 C 187.464844 226.460938 187.113281 226.832031 187.058594 227.070312 C 187.003906 227.402344 187.019531 227.730469 187.105469 228.054688 C 187.257812 228.703125 187.597656 229.226562 188.132812 229.625 C 189.273438 230.449219 190.582031 229.980469 191.226562 228.789062 C 191.300781 228.988281 191.414062 229.164062 191.566406 229.308594 C 191.71875 229.453125 191.898438 229.558594 192.097656 229.617188 C 192.300781 229.679688 192.507812 229.691406 192.714844 229.652344 C 192.921875 229.617188 193.109375 229.535156 193.28125 229.40625 C 193.707031 229.890625 193.214844 230.773438 193.761719 231.40625 C 194.054688 231.75 194.589844 231.855469 194.839844 232.238281 C 195.242188 232.859375 194.988281 233.601562 196.082031 233.65625 C 196.761719 233.691406 197.105469 233.253906 197.523438 232.816406 C 198.21875 232.074219 199.035156 231.699219 199.753906 231.105469 C 200.664062 230.363281 200.273438 229.082031 200.796875 228.128906 C 201.320312 227.171875 202.417969 226.449219 203.316406 225.851562 C 200.722656 225.65625 198.042969 225.835938 195.4375 225.851562 C 192.832031 225.871094 190.15625 225.785156 187.535156 225.90625 Z M 187.535156 225.90625 "/></g><path style=" stroke:none;fill-rule:nonzero;fill:#f1edea;fill-opacity:1;" d="M 209.332031 157.035156 C 210.613281 156.992188 211.882812 156.953125 213.144531 156.925781 C 213.167969 156.828125 213.179688 156.734375 213.179688 156.636719 L 213.179688 156.425781 C 213.179688 156 212.792969 155.214844 212.523438 154.832031 C 212.253906 154.453125 212.21875 154.019531 211.824219 153.636719 C 211.492188 153.320312 211.03125 153.144531 210.726562 152.796875 C 209.550781 151.445312 211.734375 150.238281 210.835938 148.871094 L 210.664062 148.617188 L 210.632812 148.554688 L 209.332031 148.578125 C 199.710938 148.253906 189.542969 148.304688 179.570312 148.414062 L 179.570312 156.957031 C 189.53125 156.976562 199.699219 157.121094 209.332031 157.035156 Z M 209.332031 157.035156 "/><path style=" stroke:none;fill-rule:nonzero;fill:#f1edea;fill-opacity:1;" d="M 179.5625 165.523438 L 179.5625 174.496094 C 182.210938 174.535156 184.875 174.570312 187.535156 174.597656 C 194.898438 174.667969 202.257812 174.65625 209.324219 174.34375 C 213.238281 174.402344 217.0625 174.414062 220.746094 174.40625 L 220.808594 174.378906 C 221.070312 174.246094 221.265625 174.042969 221.390625 173.773438 C 222.066406 172.292969 223.039062 171.246094 222.335938 169.476562 C 221.664062 167.789062 219.003906 166.859375 217.394531 166.851562 C 216.425781 166.820312 215.542969 167.082031 214.742188 167.625 C 214.605469 167.707031 213.984375 166.214844 213.894531 166.039062 C 213.878906 165.972656 213.859375 165.90625 213.832031 165.839844 C 212.347656 165.78125 210.84375 165.707031 209.324219 165.621094 C 199.699219 165.410156 189.53125 165.453125 179.5625 165.523438 Z M 179.5625 165.523438 "/><g clip-rule="nonzero" clip-path="url(#09d39a4b42)"><path style=" stroke:none;fill-rule:nonzero;fill:#f1edea;fill-opacity:1;" d="M 259.023438 188.496094 C 258.8125 188.039062 258.5 187.667969 258.085938 187.386719 C 257.601562 187.070312 256.9375 187.09375 256.390625 186.992188 C 255.761719 186.875 255.019531 186.488281 254.355469 186.566406 C 253.789062 186.636719 253.480469 187 252.953125 187.089844 C 252.171875 187.226562 251.824219 186.96875 251.253906 186.503906 C 250.496094 185.886719 250.453125 184.945312 249.664062 184.359375 C 248.65625 183.617188 247.363281 183.882812 246.296875 184.285156 C 245.757812 184.511719 245.203125 184.667969 244.625 184.746094 C 244.109375 184.8125 243.605469 184.925781 243.113281 185.09375 C 242.023438 185.507812 241.265625 186.296875 240.277344 186.847656 C 239.863281 187.082031 239.496094 187.515625 238.949219 187.472656 C 238.328125 187.421875 237.941406 186.839844 237.253906 186.882812 C 236.886719 186.90625 236.5625 187.03125 236.246094 187.054688 C 235.847656 187.054688 235.460938 186.984375 235.085938 186.839844 C 234.390625 186.660156 233.757812 186.417969 233.03125 186.804688 C 232.25 187.21875 232.40625 188.042969 231.976562 188.5625 C 231.414062 189.234375 230.550781 189.414062 230.757812 190.523438 L 230.605469 190.523438 C 230.410156 190.523438 230.21875 190.570312 230.042969 190.660156 L 229.832031 190.765625 C 229.589844 190.964844 229.335938 191.152344 229.074219 191.328125 L 229.007812 191.394531 L 228.765625 191.511719 C 228.714844 191.539062 228.664062 191.570312 228.617188 191.601562 C 228.582031 191.605469 228.546875 191.609375 228.511719 191.617188 C 235.027344 191.578125 240.914062 191.480469 245.835938 191.476562 C 251.191406 191.585938 255.414062 191.5625 258.046875 191.527344 L 258.046875 191.5 C 258.144531 191.441406 258.234375 191.371094 258.316406 191.292969 L 258.425781 191.183594 C 258.460938 191.148438 258.492188 191.109375 258.523438 191.070312 C 259.355469 190.402344 259.425781 189.363281 259.023438 188.496094 Z M 259.023438 188.496094 "/></g><g clip-rule="nonzero" clip-path="url(#9d4225085c)"><path style=" stroke:none;fill-rule:nonzero;fill:#f1edea;fill-opacity:1;" d="M 165.75 191.472656 C 172.804688 191.402344 180.175781 191.351562 187.535156 191.34375 C 194.894531 191.335938 202.257812 191.375 209.324219 191.472656 C 215.820312 191.636719 222.0625 191.648438 227.828125 191.617188 C 227.699219 191.460938 227.539062 191.339844 227.351562 191.261719 C 227.003906 191.121094 226.664062 191.128906 226.324219 191.292969 C 226.171875 191.363281 225.199219 191.542969 225.015625 191.46875 C 225.429688 190.472656 224.574219 189.90625 224.28125 189.214844 C 223.964844 188.457031 224.183594 187.496094 223.855469 186.777344 C 223.644531 186.320312 223.183594 186.085938 222.738281 185.90625 C 222.320312 185.757812 221.953125 185.53125 221.632812 185.226562 C 221.34375 184.964844 221.03125 184.742188 220.691406 184.550781 C 220.460938 184.425781 220.160156 184.484375 219.988281 184.332031 C 219.941406 184.289062 219.394531 183.230469 219.367188 183.277344 C 219.402344 183.21875 219.4375 183.15625 219.464844 183.09375 C 216.191406 183.050781 212.785156 183.011719 209.324219 183.007812 C 202.265625 182.800781 194.898438 182.800781 187.535156 182.851562 C 180.171875 182.902344 172.816406 183.007812 165.75 183.007812 C 158.691406 183.1875 151.910156 183.496094 145.726562 183.128906 C 139.542969 182.902344 133.949219 182.949219 129.238281 183.007812 C 126.660156 183.007812 124.34375 183.007812 122.34375 183.007812 L 121.496094 183.523438 C 120.535156 184.125 119.730469 184.824219 118.683594 185.355469 C 117.597656 185.910156 116.460938 186.550781 116.066406 187.792969 C 115.425781 189.816406 117.402344 190.792969 118.945312 189.742188 C 119.902344 189.089844 119.777344 189.234375 120.710938 189.519531 C 121.410156 189.734375 122.308594 189.671875 123.054688 189.773438 C 123.417969 189.839844 123.785156 189.855469 124.152344 189.820312 C 124.492188 189.765625 124.996094 189.347656 125.277344 189.355469 C 125.558594 189.363281 125.886719 189.785156 126.164062 189.882812 C 126.609375 190.035156 126.835938 189.933594 127.269531 189.882812 C 127.957031 189.789062 128.632812 189.832031 129.300781 190.023438 C 130.441406 190.316406 134.261719 191.035156 133.5 188.546875 C 135.296875 188.320312 136.019531 190.480469 137.957031 189.871094 C 138.320312 190.726562 139.441406 190.933594 140.195312 190.480469 C 141 191.207031 141.917969 191.113281 142.902344 190.910156 C 143.804688 190.722656 144.714844 190.652344 145.636719 190.695312 C 145.734375 190.871094 145.867188 191.015625 146.035156 191.125 L 146.355469 191.339844 C 146.472656 191.417969 146.597656 191.472656 146.734375 191.507812 C 152.644531 191.570312 159.0625 191.304688 165.75 191.472656 Z M 165.75 191.472656 "/></g><path style=" stroke:none;fill-rule:nonzero;fill:#f1edea;fill-opacity:1;" d="M 141.84375 191.109375 L 141.554688 191.109375 C 141.652344 191.121094 141.746094 191.121094 141.84375 191.109375 Z M 141.84375 191.109375 "/><path style=" stroke:none;fill-rule:nonzero;fill:#f1edea;fill-opacity:1;" d="M 231.261719 208.722656 C 231.261719 208.621094 231.273438 208.519531 231.300781 208.421875 L 230.953125 208.464844 L 230.175781 208.679688 C 230.085938 208.785156 229.980469 208.875 229.859375 208.945312 C 229.804688 209.039062 229.734375 209.125 229.65625 209.199219 L 231.296875 209.210938 C 231.277344 209.121094 231.265625 209.027344 231.261719 208.929688 Z M 231.261719 208.722656 "/><path style=" stroke:none;fill-rule:nonzero;fill:#f1edea;fill-opacity:1;" d="M 235.203125 209.128906 L 235.097656 209.128906 C 234.816406 209.128906 234.5625 209.042969 234.339844 208.875 C 234.222656 208.964844 234.089844 209.027344 233.945312 209.070312 C 233.933594 209.121094 233.914062 209.171875 233.890625 209.222656 L 235.429688 209.222656 C 235.414062 209.183594 235.398438 209.148438 235.386719 209.109375 C 235.324219 209.121094 235.265625 209.125 235.203125 209.128906 Z M 235.203125 209.128906 "/><path style=" stroke:none;fill-rule:nonzero;fill:#f1edea;fill-opacity:1;" d="M 209.332031 200.222656 C 202.277344 200 194.910156 200.078125 187.546875 200.171875 C 181.886719 200.242188 176.230469 200.34375 170.699219 200.300781 L 170.699219 200.578125 C 170.699219 201.023438 171 201.386719 171.058594 201.820312 C 171.140625 202.414062 170.859375 202.988281 170.882812 203.589844 C 170.882812 204.136719 170.925781 204.679688 171.019531 205.214844 C 171.164062 205.839844 171.675781 206.207031 171.714844 206.769531 C 171.777344 207.605469 170.890625 207.941406 171.1875 208.878906 C 171.308594 209.257812 178.167969 208.914062 178.875 208.921875 C 181.765625 208.945312 184.65625 208.972656 187.546875 208.992188 C 194.910156 208.992188 202.269531 209.007812 209.332031 208.992188 C 216.523438 209.03125 223.402344 209.160156 229.671875 209.210938 C 229.753906 209.136719 229.820312 209.050781 229.878906 208.957031 C 230 208.886719 230.101562 208.796875 230.195312 208.691406 L 230.96875 208.476562 L 231.316406 208.433594 C 231.292969 208.53125 231.28125 208.632812 231.28125 208.734375 L 231.28125 208.949219 C 231.28125 209.042969 231.292969 209.136719 231.316406 209.230469 L 233.910156 209.230469 C 233.929688 209.179688 233.949219 209.128906 233.964844 209.078125 C 234.105469 209.035156 234.238281 208.972656 234.359375 208.882812 C 234.582031 209.050781 234.835938 209.136719 235.113281 209.136719 L 235.21875 209.136719 C 235.285156 209.136719 235.347656 209.128906 235.410156 209.121094 C 235.421875 209.160156 235.4375 209.195312 235.453125 209.230469 C 235.644531 209.667969 242.292969 209.1875 243.066406 209.109375 C 243.878906 209.03125 244.164062 208.628906 244.882812 208.269531 C 245.601562 207.910156 246.082031 207.8125 245.984375 206.863281 C 245.835938 205.425781 243.714844 205.019531 243.277344 206.507812 C 242.851562 206.34375 242.394531 206.539062 242.03125 206.398438 C 241.800781 206.308594 241.503906 205.867188 241.277344 205.730469 C 241.492188 205.855469 243.796875 205.210938 244.148438 205.113281 C 245.328125 204.800781 245.738281 204.210938 245.707031 202.992188 C 246.949219 202.910156 247.367188 202.816406 248.449219 202.308594 C 249.324219 201.890625 251.125 201.691406 250.34375 200.207031 C 248.957031 200.207031 247.464844 200.214844 245.863281 200.230469 C 236.414062 200.046875 223.449219 199.835938 209.332031 200.222656 Z M 209.332031 200.222656 "/><path style=" stroke:none;fill-rule:nonzero;fill:#f1edea;fill-opacity:1;" d="M 187.535156 217.214844 C 183.910156 217.25 180.285156 217.332031 176.699219 217.394531 C 176.683594 217.464844 176.675781 217.539062 176.675781 217.617188 L 176.675781 217.722656 C 176.675781 217.792969 176.679688 217.867188 176.691406 217.9375 C 176.585938 218.570312 175.839844 219.214844 175.707031 220.011719 C 175.574219 220.8125 175.554688 221.726562 175.929688 222.429688 C 176.769531 224 178.199219 223.570312 179.503906 223.390625 C 179.839844 223.34375 180.28125 223.492188 180.667969 223.472656 C 181.011719 223.453125 181.421875 223.238281 181.707031 223.234375 C 182.121094 223.234375 182.511719 223.457031 182.984375 223.433594 C 183.273438 223.421875 183.617188 223.265625 183.894531 223.277344 C 184.597656 223.300781 185.171875 223.558594 185.890625 223.605469 C 186.453125 223.648438 187.183594 223.902344 187.734375 223.730469 C 187.414062 223.828125 187.464844 225.339844 187.464844 225.65625 L 187.464844 225.90625 L 187.535156 225.90625 C 192.828125 225.9375 198.121094 225.820312 203.289062 225.859375 L 203.941406 225.355469 L 204.410156 224.976562 C 205.417969 224.351562 206.578125 223.816406 207.535156 223.121094 C 208.101562 222.710938 208.707031 222.339844 209.300781 221.980469 C 209.894531 221.625 210.539062 221.378906 211.066406 220.898438 C 211.582031 220.371094 212.144531 219.902344 212.757812 219.492188 C 213.136719 219.242188 213.539062 219.046875 213.964844 218.902344 C 214.371094 218.785156 214.453125 218.851562 214.878906 218.777344 C 215.605469 218.648438 216.269531 218.394531 216.269531 217.511719 L 216.269531 217.402344 C 216.269531 217.371094 216.269531 217.347656 216.269531 217.320312 C 213.996094 217.339844 211.679688 217.382812 209.328125 217.449219 C 202.257812 217.277344 194.898438 217.210938 187.535156 217.214844 Z M 187.535156 217.214844 "/><g clip-rule="nonzero" clip-path="url(#64c61c92b7)"><path style=" stroke:none;fill-rule:nonzero;fill:#ff0011;fill-opacity:1;" d="M 178.332031 147.339844 L 178.332031 147.253906 L 178.351562 147.171875 L 178.375 147.171875 L 178.589844 147.0625 C 180.910156 145.902344 178.261719 144.632812 177.464844 144.355469 C 175.75 143.75 172.410156 143.417969 170.554688 143.46875 C 167.167969 143.5625 164.234375 142.816406 160.964844 142.066406 C 158.445312 141.484375 155.671875 142.089844 153.433594 143.351562 C 150.734375 144.867188 150.355469 147.445312 148.277344 149.292969 C 147.21875 150.230469 145.570312 149.757812 144.382812 150.640625 C 141.535156 152.761719 138.902344 156.992188 139.394531 160.503906 C 137.011719 160.773438 135.769531 164.273438 135.449219 165.949219 C 135.238281 167.066406 135.867188 167.214844 134.863281 168.429688 C 134.207031 169.226562 133.507812 168.773438 132.941406 169.421875 C 131.578125 170.972656 132.835938 171.582031 132.515625 172.730469 C 132.339844 173.371094 131.4375 173.917969 130.921875 174.5 C 129.535156 176.089844 128.828125 178.066406 127.535156 179.695312 C 126.296875 181.25 124.410156 181.886719 122.8125 182.898438 C 124.855469 183.214844 127.136719 183.03125 129.226562 183.003906 C 133.9375 182.941406 139.527344 182.898438 145.710938 183.121094 C 151.894531 183.492188 158.667969 183.179688 165.734375 183.003906 C 169.992188 183.003906 174.359375 182.964844 178.773438 182.925781 L 179.546875 182.925781 L 179.546875 148.40625 C 179.546875 148.40625 178.410156 147.5 178.332031 147.339844 Z M 178.332031 147.339844 "/></g><path style=" stroke:none;fill-rule:nonzero;fill:#f1edea;fill-opacity:1;" d="M 168.988281 163.847656 C 168.425781 169.503906 163.539062 174.972656 157.347656 175.15625 C 151.734375 175.316406 146.398438 170.960938 146.007812 165.230469 C 145.605469 159.449219 149.902344 154.238281 155.398438 152.90625 C 157.070312 152.488281 158.75 152.449219 160.441406 152.792969 C 162.128906 153.132812 163.664062 153.820312 165.042969 154.855469 C 168.191406 157.25 169.3125 160.578125 168.988281 163.847656 Z M 168.988281 163.847656 "/><path style=" stroke:none;fill-rule:nonzero;fill:#00a8e2;fill-opacity:1;" d="M 166.125 161.125 C 166.121094 161.074219 166.109375 161.027344 166.089844 160.980469 L 166.074219 160.945312 L 166.074219 160.910156 C 166.074219 160.875 166.066406 160.84375 166.054688 160.8125 C 166.050781 160.792969 166.042969 160.773438 166.035156 160.753906 C 166.03125 160.730469 166.023438 160.710938 166.015625 160.6875 C 166.011719 160.664062 166.003906 160.644531 165.996094 160.621094 L 165.984375 160.589844 C 165.980469 160.554688 165.972656 160.523438 165.960938 160.488281 C 165.960938 160.472656 165.953125 160.457031 165.945312 160.445312 C 165.9375 160.410156 165.925781 160.378906 165.910156 160.347656 L 165.882812 160.300781 L 165.871094 160.277344 C 165.863281 160.257812 165.851562 160.238281 165.839844 160.222656 C 165.824219 160.195312 165.808594 160.171875 165.789062 160.152344 L 165.746094 160.105469 C 165.683594 160.039062 165.613281 159.996094 165.527344 159.96875 C 165.457031 159.949219 165.386719 159.929688 165.316406 159.914062 C 165.234375 159.898438 165.148438 159.898438 165.066406 159.914062 L 165.046875 159.914062 L 165.003906 159.898438 L 164.980469 159.898438 L 164.945312 159.871094 L 164.875 159.828125 C 164.863281 159.820312 164.851562 159.8125 164.839844 159.808594 C 164.800781 159.765625 164.753906 159.730469 164.703125 159.703125 L 164.679688 159.671875 L 164.636719 159.621094 L 164.574219 159.539062 L 164.574219 159.363281 L 164.320312 159.363281 C 164.296875 159.339844 164.269531 159.320312 164.238281 159.304688 L 164.214844 159.289062 C 164.175781 159.253906 164.125 159.222656 164.074219 159.199219 L 164.035156 159.183594 C 164.011719 159.164062 163.980469 159.144531 163.949219 159.128906 L 163.910156 159.113281 C 163.890625 159.097656 163.867188 159.082031 163.84375 159.070312 L 163.769531 159.039062 L 163.71875 159.011719 L 163.691406 159.011719 L 163.601562 159 L 163.546875 159 C 163.523438 158.996094 163.503906 158.996094 163.480469 159 C 163.394531 158.988281 163.308594 158.992188 163.226562 159.019531 L 163.113281 159.019531 C 163.089844 159.007812 163.066406 158.996094 163.042969 158.984375 L 162.917969 158.953125 L 162.894531 158.953125 C 162.863281 158.949219 162.828125 158.949219 162.796875 158.953125 L 162.722656 158.953125 C 162.707031 158.949219 162.691406 158.945312 162.679688 158.941406 L 162.628906 158.921875 L 162.605469 158.921875 L 162.5625 158.898438 C 162.53125 158.882812 162.496094 158.867188 162.460938 158.859375 L 162.371094 158.824219 C 162.304688 158.792969 162.234375 158.777344 162.164062 158.773438 C 162.152344 158.75 162.136719 158.722656 162.117188 158.703125 C 162.109375 158.683594 162.097656 158.667969 162.085938 158.652344 C 162.035156 158.558594 161.957031 158.488281 161.863281 158.441406 L 161.796875 158.414062 C 161.730469 158.394531 161.667969 158.382812 161.597656 158.386719 C 161.550781 158.355469 161.496094 158.335938 161.441406 158.324219 L 161.386719 158.308594 L 161.332031 158.277344 C 161.273438 158.25 161.210938 158.230469 161.148438 158.226562 L 161.128906 158.226562 C 161.09375 158.210938 161.054688 158.199219 161.015625 158.195312 L 160.972656 158.179688 L 160.9375 158.179688 C 160.914062 158.171875 160.894531 158.164062 160.871094 158.160156 L 160.820312 158.140625 C 160.769531 158.125 160.71875 158.117188 160.664062 158.117188 C 160.628906 158.105469 160.589844 158.097656 160.550781 158.09375 C 160.523438 158.070312 160.492188 158.050781 160.460938 158.035156 L 160.394531 158.003906 C 160.328125 157.976562 160.257812 157.964844 160.183594 157.96875 L 160.164062 157.96875 C 160.152344 157.953125 160.140625 157.933594 160.128906 157.917969 C 160.128906 157.902344 160.128906 157.878906 160.128906 157.863281 C 160.128906 157.84375 160.128906 157.804688 160.128906 157.773438 L 160.128906 157.75 C 160.132812 157.730469 160.132812 157.710938 160.128906 157.6875 L 160.109375 157.558594 C 160.089844 157.460938 160.042969 157.375 159.972656 157.304688 C 159.945312 157.273438 159.910156 157.25 159.875 157.226562 L 159.863281 157.226562 L 159.847656 157.207031 L 159.828125 157.183594 C 159.8125 157.15625 159.792969 157.132812 159.773438 157.113281 C 159.746094 157.0625 159.71875 157.019531 159.679688 156.976562 L 159.652344 156.921875 C 159.652344 156.890625 159.644531 156.855469 159.636719 156.824219 L 159.636719 156.746094 C 159.636719 156.722656 159.636719 156.703125 159.636719 156.683594 C 159.636719 156.582031 159.609375 156.492188 159.554688 156.410156 L 159.554688 156.394531 C 159.554688 156.386719 159.554688 156.378906 159.554688 156.371094 L 159.53125 156.320312 C 159.511719 156.285156 159.484375 156.25 159.457031 156.222656 L 159.351562 156.113281 C 159.316406 156.074219 159.273438 156.046875 159.226562 156.023438 C 159.113281 155.964844 158.992188 155.949219 158.867188 155.980469 C 158.777344 156.003906 158.699219 156.046875 158.632812 156.113281 C 158.566406 156.179688 158.523438 156.257812 158.5 156.351562 L 158.476562 156.382812 C 158.457031 156.40625 158.4375 156.429688 158.421875 156.453125 C 158.394531 156.488281 158.375 156.527344 158.359375 156.570312 L 158.335938 156.601562 C 158.300781 156.640625 158.269531 156.683594 158.246094 156.730469 L 158.226562 156.761719 C 158.214844 156.78125 158.207031 156.796875 158.203125 156.820312 C 158.121094 156.800781 158.035156 156.800781 157.953125 156.820312 L 157.90625 156.800781 C 157.851562 156.761719 157.792969 156.738281 157.730469 156.722656 C 157.644531 156.699219 157.5625 156.699219 157.476562 156.722656 C 157.441406 156.726562 157.40625 156.738281 157.371094 156.75 C 157.304688 156.730469 157.238281 156.726562 157.167969 156.738281 C 157.050781 156.75 156.953125 156.800781 156.871094 156.882812 C 156.851562 156.902344 156.835938 156.921875 156.820312 156.941406 L 156.785156 156.941406 C 156.738281 156.941406 156.6875 156.945312 156.640625 156.957031 C 156.601562 156.960938 156.566406 156.96875 156.527344 156.984375 C 156.457031 157.003906 156.394531 157.042969 156.339844 157.089844 L 156.296875 157.109375 L 156.261719 157.109375 C 156.230469 157.109375 156.203125 157.117188 156.171875 157.121094 C 156.164062 157.101562 156.15625 157.082031 156.140625 157.0625 C 156.140625 157.039062 156.160156 157.011719 156.167969 156.988281 L 156.183594 156.957031 C 156.203125 156.933594 156.214844 156.910156 156.226562 156.882812 C 156.320312 156.726562 156.324219 156.570312 156.242188 156.410156 C 156.242188 156.398438 156.234375 156.390625 156.230469 156.382812 C 156.210938 156.285156 156.171875 156.199219 156.105469 156.128906 C 156.09375 156.007812 156.042969 155.90625 155.960938 155.820312 C 155.902344 155.734375 155.828125 155.675781 155.730469 155.644531 L 155.710938 155.644531 C 155.570312 155.585938 155.425781 155.578125 155.277344 155.617188 C 155.132812 155.65625 155.007812 155.734375 154.914062 155.855469 C 154.890625 155.890625 154.871094 155.929688 154.855469 155.96875 C 154.824219 155.984375 154.792969 156.007812 154.761719 156.03125 C 154.75 156.039062 154.742188 156.042969 154.730469 156.050781 C 154.6875 156.046875 154.648438 156.046875 154.605469 156.050781 C 154.519531 156.058594 154.4375 156.089844 154.367188 156.136719 L 154.269531 156.136719 C 154.234375 156.128906 154.203125 156.125 154.167969 156.125 C 154.113281 156.101562 154.058594 156.085938 154 156.082031 L 153.957031 156.082031 L 153.917969 156.0625 C 153.78125 156 153.644531 156 153.507812 156.0625 C 153.371094 156.125 153.277344 156.230469 153.234375 156.375 C 153.21875 156.429688 153.210938 156.484375 153.210938 156.539062 C 153.210938 156.597656 153.21875 156.65625 153.242188 156.710938 C 153.261719 156.777344 153.296875 156.835938 153.34375 156.890625 C 153.363281 156.917969 153.382812 156.941406 153.40625 156.964844 L 153.441406 157.011719 C 153.449219 157.097656 153.472656 157.171875 153.511719 157.246094 C 153.511719 157.257812 153.511719 157.269531 153.511719 157.285156 C 153.484375 157.296875 153.453125 157.3125 153.425781 157.332031 L 153.382812 157.355469 L 153.351562 157.371094 L 153.25 157.371094 L 153.25 157.355469 C 153.242188 157.335938 153.234375 157.316406 153.222656 157.296875 C 153.207031 157.265625 153.191406 157.238281 153.171875 157.210938 C 153.144531 157.132812 153.101562 157.0625 153.042969 157.003906 C 153.019531 156.976562 152.988281 156.953125 152.957031 156.933594 C 152.753906 156.804688 152.554688 156.8125 152.363281 156.953125 C 152.289062 156.957031 152.214844 156.976562 152.148438 157.011719 L 152.078125 157.054688 L 151.953125 157.054688 C 151.863281 157.027344 151.773438 157.027344 151.683594 157.054688 L 151.65625 157.054688 L 151.605469 157.066406 C 151.492188 157.089844 151.402344 157.148438 151.328125 157.238281 C 151.257812 157.328125 151.222656 157.429688 151.222656 157.546875 L 151.222656 157.757812 C 151.171875 157.839844 151.144531 157.925781 151.144531 158.023438 L 151.144531 158.277344 C 151.140625 158.296875 151.140625 158.320312 151.144531 158.339844 C 151.144531 158.46875 151.1875 158.582031 151.273438 158.675781 L 151.289062 158.6875 C 151.304688 158.710938 151.320312 158.726562 151.339844 158.746094 C 151.351562 158.769531 151.363281 158.792969 151.375 158.816406 C 151.375 158.828125 151.375 158.84375 151.375 158.855469 L 151.265625 159.484375 L 151.226562 159.484375 C 151.195312 159.488281 151.160156 159.5 151.132812 159.515625 C 151.097656 159.53125 151.066406 159.550781 151.035156 159.570312 L 150.96875 159.59375 L 150.949219 159.59375 C 150.886719 159.589844 150.828125 159.601562 150.773438 159.628906 L 150.742188 159.628906 C 150.707031 159.636719 150.675781 159.652344 150.648438 159.671875 C 150.617188 159.6875 150.589844 159.703125 150.566406 159.726562 L 150.550781 159.726562 C 150.515625 159.742188 150.480469 159.757812 150.449219 159.78125 C 150.414062 159.800781 150.382812 159.828125 150.359375 159.855469 L 150.296875 159.890625 C 150.28125 159.902344 150.257812 159.914062 150.242188 159.929688 L 150.207031 159.953125 L 150.160156 159.996094 C 150.082031 160.078125 150.035156 160.175781 150.023438 160.289062 C 150.015625 160.304688 150.007812 160.320312 150.003906 160.339844 C 149.992188 160.355469 149.984375 160.375 149.972656 160.390625 C 149.960938 160.414062 149.949219 160.4375 149.9375 160.464844 C 149.910156 160.515625 149.890625 160.570312 149.882812 160.625 C 149.855469 160.644531 149.835938 160.667969 149.816406 160.695312 C 149.78125 160.730469 149.757812 160.773438 149.734375 160.816406 L 149.734375 160.84375 C 149.71875 160.871094 149.707031 160.902344 149.699219 160.933594 C 149.644531 161.007812 149.609375 161.09375 149.601562 161.1875 C 149.585938 161.257812 149.585938 161.332031 149.601562 161.40625 C 149.617188 161.488281 149.65625 161.566406 149.710938 161.632812 L 149.734375 161.683594 C 149.75 161.714844 149.769531 161.742188 149.789062 161.769531 C 149.808594 161.828125 149.835938 161.882812 149.875 161.929688 L 149.90625 161.972656 C 149.875 162.117188 149.910156 162.253906 150 162.371094 C 150.09375 162.488281 150.21875 162.550781 150.367188 162.554688 C 150.460938 162.71875 150.601562 162.804688 150.789062 162.808594 L 150.855469 162.808594 C 150.882812 162.96875 150.964844 163.085938 151.109375 163.164062 C 151.152344 163.1875 151.199219 163.203125 151.25 163.210938 L 151.300781 163.226562 L 151.324219 163.226562 C 151.355469 163.230469 151.386719 163.230469 151.417969 163.226562 C 151.453125 163.230469 151.488281 163.230469 151.523438 163.226562 C 151.554688 163.230469 151.582031 163.230469 151.609375 163.226562 L 151.664062 163.210938 L 151.714844 163.210938 C 151.734375 163.214844 151.753906 163.214844 151.773438 163.210938 C 151.773438 163.210938 151.796875 163.210938 151.808594 163.210938 C 151.925781 163.292969 152.054688 163.3125 152.195312 163.277344 L 152.242188 163.265625 C 152.28125 163.257812 152.316406 163.246094 152.347656 163.230469 L 152.390625 163.214844 L 152.445312 163.1875 L 152.464844 163.1875 C 152.503906 163.167969 152.539062 163.144531 152.574219 163.117188 L 152.609375 163.117188 C 152.710938 163.089844 152.792969 163.035156 152.859375 162.953125 L 152.914062 162.929688 L 152.929688 162.929688 C 152.929688 162.949219 152.929688 162.96875 152.929688 162.996094 L 152.929688 163.066406 L 152.945312 163.121094 C 152.960938 163.238281 153.007812 163.335938 153.089844 163.417969 C 153.136719 163.503906 153.203125 163.570312 153.289062 163.613281 C 153.3125 163.632812 153.339844 163.652344 153.371094 163.667969 C 153.386719 163.6875 153.40625 163.707031 153.429688 163.71875 C 153.472656 163.765625 153.527344 163.796875 153.582031 163.820312 C 153.65625 163.859375 153.730469 163.878906 153.8125 163.878906 L 153.855469 163.878906 C 153.890625 163.882812 153.921875 163.882812 153.957031 163.878906 C 153.980469 163.894531 154.007812 163.90625 154.03125 163.914062 C 154.046875 163.921875 154.058594 163.933594 154.074219 163.941406 C 154.132812 163.996094 154.195312 164.035156 154.273438 164.058594 C 154.292969 164.066406 154.316406 164.070312 154.339844 164.074219 L 154.386719 164.097656 C 154.410156 164.132812 154.441406 164.164062 154.476562 164.1875 C 154.535156 164.238281 154.605469 164.273438 154.679688 164.289062 C 154.730469 164.300781 154.785156 164.308594 154.835938 164.300781 C 154.78125 164.476562 154.8125 164.632812 154.929688 164.773438 L 154.957031 164.804688 L 154.972656 164.976562 C 154.984375 165.101562 155.035156 165.207031 155.125 165.292969 C 155.214844 165.378906 155.324219 165.421875 155.449219 165.425781 L 155.6875 165.425781 C 155.6875 165.449219 155.707031 165.46875 155.714844 165.492188 C 155.738281 165.546875 155.769531 165.597656 155.808594 165.640625 L 155.808594 165.65625 C 155.847656 165.707031 155.894531 165.753906 155.949219 165.789062 L 155.964844 165.789062 L 155.941406 165.863281 L 155.925781 165.921875 L 155.820312 166.152344 C 155.78125 166.234375 155.765625 166.316406 155.777344 166.40625 C 155.765625 166.445312 155.757812 166.488281 155.757812 166.53125 L 155.757812 166.542969 C 155.757812 166.589844 155.765625 166.636719 155.777344 166.683594 C 155.789062 166.734375 155.808594 166.777344 155.835938 166.824219 C 155.835938 166.824219 155.835938 166.847656 155.847656 166.859375 C 155.847656 166.875 155.847656 166.886719 155.847656 166.902344 C 155.847656 166.902344 155.847656 166.914062 155.847656 166.917969 C 155.847656 166.921875 155.847656 166.945312 155.847656 166.960938 C 155.835938 167.003906 155.832031 167.050781 155.832031 167.097656 C 155.832031 167.113281 155.832031 167.128906 155.832031 167.144531 C 155.832031 167.144531 155.832031 167.167969 155.832031 167.175781 C 155.820312 167.21875 155.816406 167.261719 155.816406 167.304688 C 155.816406 167.363281 155.828125 167.417969 155.84375 167.46875 C 155.878906 167.652344 155.980469 167.777344 156.148438 167.847656 C 156.210938 167.890625 156.273438 167.914062 156.347656 167.925781 L 156.363281 167.925781 C 156.394531 167.9375 156.425781 167.941406 156.460938 167.941406 L 156.472656 167.941406 L 156.542969 167.960938 C 156.574219 167.96875 156.605469 167.972656 156.636719 167.976562 L 156.710938 167.976562 C 156.757812 167.988281 156.804688 167.996094 156.855469 167.996094 C 156.855469 167.996094 156.878906 167.996094 156.878906 167.996094 C 156.878906 168.035156 156.882812 168.078125 156.890625 168.117188 C 156.898438 168.160156 156.910156 168.199219 156.925781 168.242188 L 156.925781 168.292969 L 156.941406 168.3125 C 156.949219 168.335938 156.957031 168.363281 156.972656 168.386719 L 157.027344 168.480469 C 157.042969 168.5 157.0625 168.523438 157.078125 168.542969 C 157.117188 168.578125 157.15625 168.609375 157.203125 168.632812 L 157.253906 168.65625 L 157.277344 168.65625 C 157.261719 168.703125 157.253906 168.753906 157.253906 168.808594 C 157.253906 168.851562 157.257812 168.894531 157.269531 168.9375 C 157.289062 169.050781 157.34375 169.148438 157.429688 169.230469 C 157.367188 169.261719 157.316406 169.304688 157.277344 169.359375 L 157.246094 169.359375 C 157.203125 169.382812 157.160156 169.410156 157.125 169.445312 C 157.085938 169.464844 157.046875 169.492188 157.011719 169.523438 C 156.964844 169.558594 156.921875 169.597656 156.886719 169.644531 L 156.851562 169.660156 L 156.832031 169.707031 C 156.8125 169.726562 156.796875 169.746094 156.78125 169.769531 C 156.730469 169.804688 156.691406 169.851562 156.660156 169.90625 C 156.597656 169.949219 156.550781 170.007812 156.519531 170.078125 L 156.488281 170.117188 L 156.46875 170.136719 C 156.429688 170.160156 156.394531 170.183594 156.363281 170.214844 C 156.324219 170.246094 156.292969 170.285156 156.261719 170.328125 C 156.238281 170.347656 156.214844 170.367188 156.191406 170.390625 C 156.105469 170.476562 156.058594 170.578125 156.050781 170.699219 C 156.042969 170.820312 156.074219 170.929688 156.144531 171.027344 C 156.167969 171.058594 156.195312 171.089844 156.226562 171.113281 C 156.296875 171.183594 156.378906 171.230469 156.476562 171.253906 L 156.53125 171.265625 C 156.566406 171.269531 156.601562 171.269531 156.640625 171.265625 L 156.730469 171.265625 C 156.785156 171.417969 156.886719 171.519531 157.042969 171.566406 C 157.09375 171.589844 157.148438 171.597656 157.199219 171.59375 L 157.242188 171.59375 C 157.265625 171.609375 157.292969 171.621094 157.316406 171.632812 L 157.367188 171.652344 L 157.398438 171.667969 C 157.429688 171.6875 157.460938 171.699219 157.496094 171.710938 L 157.519531 171.730469 L 157.585938 171.78125 L 157.632812 171.824219 C 157.652344 171.84375 157.675781 171.859375 157.703125 171.875 C 157.703125 171.890625 157.703125 171.90625 157.703125 171.925781 L 157.703125 171.972656 C 157.699219 172 157.699219 172.027344 157.703125 172.054688 C 157.699219 172.082031 157.699219 172.113281 157.703125 172.144531 C 157.699219 172.179688 157.699219 172.214844 157.703125 172.25 C 157.726562 172.414062 157.808594 172.53125 157.953125 172.609375 C 157.992188 172.636719 158.035156 172.65625 158.078125 172.667969 C 158.128906 172.683594 158.179688 172.695312 158.234375 172.691406 C 158.285156 172.691406 158.339844 172.683594 158.386719 172.667969 C 158.433594 172.652344 158.476562 172.632812 158.515625 172.605469 L 158.859375 172.328125 L 159.082031 171.925781 C 159.109375 171.902344 159.136719 171.871094 159.160156 171.839844 L 159.378906 171.695312 C 159.414062 171.671875 159.441406 171.644531 159.46875 171.609375 L 159.507812 171.574219 L 159.535156 171.554688 L 159.5625 171.53125 C 159.582031 171.515625 159.597656 171.496094 159.613281 171.476562 L 159.636719 171.453125 C 159.652344 171.433594 159.667969 171.417969 159.683594 171.394531 L 159.890625 171.089844 C 159.902344 171.070312 159.914062 171.046875 159.921875 171.023438 L 159.945312 170.960938 C 159.953125 170.941406 159.960938 170.925781 159.964844 170.90625 L 160 170.824219 L 160.015625 170.796875 L 160.054688 170.726562 C 160.078125 170.703125 160.101562 170.671875 160.117188 170.644531 L 160.230469 170.539062 L 160.285156 170.515625 C 160.363281 170.476562 160.429688 170.417969 160.480469 170.34375 C 160.492188 170.324219 160.503906 170.304688 160.515625 170.285156 L 160.546875 170.222656 C 160.558594 170.195312 160.566406 170.167969 160.574219 170.136719 C 160.597656 170.09375 160.613281 170.042969 160.617188 169.992188 C 160.632812 169.972656 160.640625 169.953125 160.648438 169.929688 C 160.660156 169.898438 160.671875 169.871094 160.679688 169.839844 C 160.691406 169.808594 160.703125 169.777344 160.714844 169.746094 C 160.730469 169.699219 160.738281 169.648438 160.738281 169.597656 C 160.738281 169.519531 160.71875 169.445312 160.683594 169.375 C 160.675781 169.339844 160.664062 169.304688 160.648438 169.273438 C 160.671875 169.214844 160.683594 169.160156 160.683594 169.097656 L 160.71875 169.050781 C 160.773438 169.007812 160.820312 168.957031 160.851562 168.894531 C 160.875 168.882812 160.898438 168.867188 160.917969 168.851562 C 160.945312 168.839844 160.972656 168.824219 160.996094 168.800781 C 161.070312 168.777344 161.132812 168.734375 161.1875 168.675781 C 161.230469 168.664062 161.265625 168.648438 161.304688 168.628906 C 161.328125 168.632812 161.355469 168.632812 161.378906 168.628906 C 161.5625 168.667969 161.714844 168.621094 161.847656 168.488281 L 161.867188 168.46875 L 161.933594 168.414062 C 161.972656 168.367188 162.007812 168.320312 162.03125 168.265625 C 162.085938 168.214844 162.125 168.15625 162.152344 168.09375 C 162.199219 168.0625 162.238281 168.023438 162.273438 167.976562 L 162.300781 167.941406 C 162.316406 167.921875 162.328125 167.902344 162.339844 167.878906 C 162.375 167.878906 162.40625 167.875 162.441406 167.867188 L 162.53125 167.867188 L 162.578125 167.820312 C 162.609375 167.804688 162.636719 167.785156 162.664062 167.765625 L 162.6875 167.765625 L 162.761719 167.734375 L 162.785156 167.734375 C 162.816406 167.722656 162.84375 167.714844 162.871094 167.699219 C 162.941406 167.664062 163 167.617188 163.046875 167.554688 C 163.164062 167.585938 163.277344 167.578125 163.386719 167.527344 C 163.496094 167.476562 163.578125 167.398438 163.628906 167.289062 L 163.652344 167.253906 L 163.738281 167.164062 C 163.761719 167.136719 163.785156 167.109375 163.804688 167.078125 C 163.824219 167.046875 163.839844 167.015625 163.855469 166.980469 L 163.894531 166.910156 C 163.90625 166.890625 163.917969 166.871094 163.925781 166.851562 C 163.9375 166.832031 163.945312 166.808594 163.949219 166.789062 C 164.023438 166.726562 164.078125 166.648438 164.105469 166.558594 L 164.167969 166.359375 L 164.167969 166.230469 L 164.148438 166.0625 C 164.164062 166.050781 164.183594 166.035156 164.199219 166.015625 C 164.222656 165.992188 164.246094 165.964844 164.265625 165.933594 L 164.292969 165.894531 C 164.390625 165.757812 164.417969 165.609375 164.367188 165.449219 C 164.378906 165.417969 164.386719 165.386719 164.390625 165.351562 C 164.394531 165.320312 164.394531 165.292969 164.390625 165.261719 L 164.390625 165.25 C 164.40625 165.214844 164.417969 165.179688 164.425781 165.140625 C 164.433594 165.113281 164.445312 165.082031 164.449219 165.050781 C 164.476562 164.984375 164.492188 164.914062 164.492188 164.84375 C 164.492188 164.804688 164.488281 164.765625 164.480469 164.730469 C 164.472656 164.699219 164.464844 164.671875 164.453125 164.644531 C 164.453125 164.644531 164.453125 164.632812 164.453125 164.625 C 164.460938 164.605469 164.464844 164.582031 164.46875 164.5625 L 164.46875 164.496094 C 164.46875 164.476562 164.46875 164.453125 164.46875 164.429688 L 164.46875 164.308594 C 164.46875 164.28125 164.46875 164.253906 164.46875 164.226562 L 164.484375 164.121094 C 164.484375 164.105469 164.484375 164.09375 164.484375 164.078125 C 164.519531 164.050781 164.554688 164.023438 164.585938 163.992188 C 164.605469 163.976562 164.625 163.953125 164.640625 163.933594 L 164.675781 163.890625 C 164.703125 163.863281 164.726562 163.835938 164.746094 163.804688 C 164.761719 163.785156 164.777344 163.761719 164.789062 163.742188 C 164.789062 163.722656 164.816406 163.707031 164.824219 163.6875 L 164.917969 163.539062 C 164.945312 163.5 164.964844 163.457031 164.980469 163.410156 L 165.003906 163.355469 C 165.035156 163.320312 165.058594 163.277344 165.078125 163.234375 C 165.101562 163.203125 165.125 163.171875 165.140625 163.136719 L 165.179688 163.121094 C 165.28125 163.078125 165.363281 163.007812 165.417969 162.910156 L 165.4375 162.878906 L 165.4375 162.859375 L 165.464844 162.839844 C 165.496094 162.804688 165.527344 162.765625 165.550781 162.722656 L 165.5625 162.703125 C 165.605469 162.667969 165.636719 162.628906 165.667969 162.585938 L 165.6875 162.5625 C 165.703125 162.546875 165.71875 162.527344 165.734375 162.507812 C 165.757812 162.484375 165.777344 162.457031 165.796875 162.429688 C 165.8125 162.40625 165.828125 162.382812 165.839844 162.355469 L 165.855469 162.332031 C 165.851562 162.324219 165.851562 162.316406 165.855469 162.308594 C 165.867188 162.285156 165.878906 162.265625 165.890625 162.242188 L 165.890625 162.222656 C 165.90625 162.191406 165.917969 162.160156 165.925781 162.125 C 165.929688 162.121094 165.929688 162.113281 165.925781 162.109375 C 165.941406 162.082031 165.953125 162.054688 165.960938 162.027344 L 165.976562 161.972656 C 165.992188 161.929688 166.003906 161.890625 166.011719 161.847656 C 166.03125 161.796875 166.046875 161.75 166.054688 161.695312 L 166.054688 161.527344 C 166.054688 161.5 166.054688 161.472656 166.054688 161.445312 C 166.054688 161.429688 166.054688 161.417969 166.054688 161.40625 C 166.054688 161.382812 166.054688 161.359375 166.054688 161.339844 L 166.054688 161.253906 C 166.085938 161.214844 166.109375 161.171875 166.125 161.125 Z M 159.402344 157.207031 Z M 159.402344 157.207031 "/><path style=" stroke:none;fill-rule:nonzero;fill:#f7db1f;fill-opacity:1;" d="M 177.253906 177.539062 C 177.140625 177.535156 177.023438 177.535156 176.910156 177.539062 C 176.777344 177.539062 176.621094 177.539062 176.460938 177.539062 C 176.152344 177.539062 175.839844 177.519531 175.53125 177.539062 C 175.410156 177.253906 175.332031 176.945312 175.242188 176.648438 C 175.191406 176.507812 175.148438 176.355469 175.101562 176.222656 C 175.054688 176.089844 175.019531 175.96875 174.996094 175.894531 C 174.972656 175.816406 174.953125 175.761719 174.953125 175.761719 C 174.953125 175.765625 174.9375 175.808594 174.910156 175.894531 C 174.882812 175.980469 174.847656 176.089844 174.804688 176.222656 C 174.710938 176.507812 174.617188 176.792969 174.527344 177.078125 C 174.488281 177.203125 174.445312 177.316406 174.421875 177.410156 C 174.355469 177.632812 174.011719 177.542969 173.8125 177.546875 C 173.539062 177.5625 173.269531 177.5625 172.996094 177.546875 C 172.867188 177.546875 172.746094 177.546875 172.652344 177.546875 C 172.605469 177.542969 172.5625 177.542969 172.515625 177.546875 C 172.554688 177.570312 172.59375 177.597656 172.625 177.628906 C 172.703125 177.679688 172.792969 177.75 172.90625 177.832031 C 173.238281 178.082031 173.582031 178.3125 173.914062 178.5625 C 174.0625 178.675781 173.988281 178.742188 173.914062 178.910156 C 173.839844 179.078125 173.804688 179.242188 173.753906 179.414062 C 173.648438 179.753906 173.554688 180.089844 173.4375 180.425781 C 173.882812 180.085938 174.34375 179.757812 174.792969 179.414062 C 174.992188 179.265625 175.09375 179.414062 175.273438 179.546875 C 175.570312 179.765625 175.875 179.976562 176.167969 180.195312 C 176.226562 180.242188 176.433594 180.351562 176.453125 180.417969 C 176.40625 180.257812 175.832031 178.671875 175.878906 178.648438 L 175.988281 178.566406 C 176.058594 178.515625 176.15625 178.449219 176.269531 178.363281 C 176.394531 178.28125 176.515625 178.195312 176.632812 178.097656 C 176.753906 178 176.882812 177.925781 176.996094 177.832031 C 177.105469 177.742188 177.210938 177.6875 177.273438 177.632812 C 177.308594 177.601562 177.347656 177.574219 177.386719 177.550781 C 177.386719 177.550781 177.34375 177.546875 177.253906 177.539062 Z M 177.253906 177.539062 "/><path style=" stroke:none;fill-rule:nonzero;fill:#f7db1f;fill-opacity:1;" d="M 141.859375 177.539062 C 141.746094 177.535156 141.628906 177.535156 141.515625 177.539062 C 141.382812 177.539062 141.226562 177.539062 141.066406 177.539062 C 140.757812 177.539062 140.445312 177.519531 140.136719 177.539062 C 140.019531 177.253906 139.941406 176.945312 139.847656 176.648438 C 139.796875 176.507812 139.757812 176.355469 139.707031 176.222656 C 139.660156 176.089844 139.628906 175.96875 139.601562 175.894531 C 139.578125 175.816406 139.558594 175.761719 139.558594 175.761719 C 139.558594 175.765625 139.542969 175.808594 139.515625 175.894531 C 139.488281 175.980469 139.453125 176.089844 139.410156 176.222656 C 139.316406 176.507812 139.222656 176.792969 139.132812 177.078125 C 139.09375 177.203125 139.054688 177.316406 139.027344 177.410156 C 138.960938 177.632812 138.621094 177.542969 138.417969 177.546875 C 138.144531 177.5625 137.875 177.5625 137.601562 177.546875 C 137.476562 177.546875 137.351562 177.546875 137.257812 177.546875 C 137.210938 177.542969 137.167969 177.542969 137.121094 177.546875 C 137.160156 177.570312 137.199219 177.597656 137.234375 177.628906 L 137.511719 177.832031 C 137.84375 178.082031 138.1875 178.3125 138.519531 178.5625 C 138.667969 178.675781 138.59375 178.742188 138.519531 178.910156 C 138.449219 179.078125 138.410156 179.242188 138.359375 179.414062 C 138.257812 179.753906 138.160156 180.089844 138.042969 180.425781 C 138.492188 180.085938 138.949219 179.757812 139.398438 179.414062 C 139.601562 179.265625 139.699219 179.414062 139.878906 179.546875 C 140.175781 179.765625 140.480469 179.976562 140.773438 180.195312 C 140.832031 180.242188 141.027344 180.351562 141.058594 180.417969 C 141.011719 180.257812 140.4375 178.671875 140.484375 178.648438 L 140.59375 178.566406 C 140.664062 178.515625 140.765625 178.449219 140.875 178.363281 C 141 178.28125 141.121094 178.195312 141.238281 178.097656 C 141.359375 178 141.488281 177.925781 141.601562 177.832031 C 141.710938 177.742188 141.816406 177.6875 141.878906 177.632812 C 141.914062 177.601562 141.953125 177.574219 141.992188 177.550781 C 141.992188 177.550781 141.953125 177.546875 141.859375 177.539062 Z M 141.859375 177.539062 "/><path style=" stroke:none;fill-rule:nonzero;fill:#f7db1f;fill-opacity:1;" d="M 177.253906 149.050781 C 177.171875 149.050781 177.058594 149.050781 176.910156 149.050781 C 176.761719 149.050781 176.621094 149.050781 176.460938 149.050781 C 176.152344 149.050781 175.839844 149.035156 175.53125 149.050781 C 175.410156 148.765625 175.332031 148.457031 175.242188 148.164062 C 175.191406 148.019531 175.148438 147.867188 175.101562 147.734375 C 175.054688 147.601562 175.019531 147.480469 174.996094 147.40625 C 174.972656 147.328125 174.953125 147.273438 174.953125 147.273438 C 174.953125 147.273438 174.9375 147.320312 174.910156 147.40625 C 174.882812 147.492188 174.847656 147.601562 174.804688 147.734375 C 174.710938 148.019531 174.617188 148.304688 174.527344 148.589844 C 174.488281 148.714844 174.445312 148.828125 174.421875 148.921875 C 174.355469 149.144531 174.011719 149.054688 173.8125 149.058594 C 173.539062 149.074219 173.269531 149.074219 172.996094 149.058594 C 172.867188 149.058594 172.746094 149.058594 172.652344 149.058594 C 172.605469 149.054688 172.5625 149.054688 172.515625 149.058594 C 172.554688 149.082031 172.589844 149.109375 172.625 149.140625 L 172.90625 149.34375 C 173.238281 149.597656 173.582031 149.824219 173.914062 150.074219 C 174.0625 150.1875 173.988281 150.253906 173.914062 150.421875 C 173.839844 150.589844 173.804688 150.757812 173.753906 150.925781 C 173.648438 151.265625 173.554688 151.605469 173.4375 151.9375 C 173.882812 151.601562 174.34375 151.273438 174.792969 150.925781 C 174.992188 150.777344 175.09375 150.925781 175.273438 151.058594 C 175.570312 151.277344 175.875 151.488281 176.167969 151.710938 C 176.226562 151.757812 176.433594 151.863281 176.453125 151.929688 C 176.40625 151.773438 175.832031 150.183594 175.878906 150.160156 L 175.988281 150.078125 C 176.058594 150.027344 176.15625 149.964844 176.269531 149.875 C 176.394531 149.792969 176.515625 149.707031 176.632812 149.609375 C 176.753906 149.511719 176.882812 149.4375 176.996094 149.359375 C 177.105469 149.277344 177.210938 149.210938 177.273438 149.152344 C 177.339844 149.09375 177.386719 149.074219 177.386719 149.070312 C 177.386719 149.070312 177.34375 149.054688 177.253906 149.050781 Z M 177.253906 149.050781 "/></g></svg>